<?xml version="1.0" encoding="utf-8"?>
<!-- Generator: Adobe Illustrator 17.1.0, SVG Export Plug-In . SVG Version: 6.00 Build 0)  -->
<!DOCTYPE svg PUBLIC "-//W3C//DTD SVG 1.1//EN" "http://www.w3.org/Graphics/SVG/1.1/DTD/svg11.dtd">
<svg version="1.1" xmlns="http://www.w3.org/2000/svg" xmlns:xlink="http://www.w3.org/1999/xlink" x="0px" y="0px"
	 viewBox="0 0 247.3 222" enable-background="new 0 0 247.3 222" xml:space="preserve">
<g id="Layer_1" display="none">
	
		<image display="inline" overflow="visible" opacity="0.57" width="983" height="570" xlink:href="../../../../plattegrond.png"  transform="matrix(2.695829e-002 0 0 2.695829e-002 127.6421 114.8911)">
	</image>
</g>
<g id="Layer_2">
	<g>
		<g>
			<line x1="35.5" y1="46.1" x2="75.8" y2="46.1"/>
			<rect x="35.5" y="45.8" fill="#5D5D5D" width="40.3" height="0.5"/>
		</g>
		<g>
			<line x1="51.7" y1="81.2" x2="75.8" y2="81.2"/>
			<rect x="51.7" y="81" fill="#5D5D5D" width="24.1" height="0.5"/>
		</g>
		<g>
			<line x1="75.8" y1="117.6" x2="99.8" y2="117.6"/>
			<rect x="75.8" y="117.3" fill="#5D5D5D" width="24" height="0.5"/>
		</g>
		<g>
			<line x1="99.8" y1="104.1" x2="99.8" y2="191.9"/>
			<rect x="99.5" y="104.1" fill="#5D5D5D" width="0.5" height="87.9"/>
		</g>
		<g>
			<line x1="133.7" y1="104.1" x2="133.7" y2="222"/>
			<rect x="133.5" y="104.1" fill="#5D5D5D" width="0.5" height="117.9"/>
		</g>
		<g>
			<line x1="133.7" y1="199.7" x2="218.5" y2="199.7"/>
			<rect x="133.7" y="199.5" fill="#5D5D5D" width="84.8" height="0.5"/>
		</g>
		<g>
			<line x1="226.8" y1="111" x2="226.8" y2="182.3"/>
			<rect x="226.5" y="111" fill="#5D5D5D" width="0.5" height="71.3"/>
		</g>
		<g>
			<line x1="75.8" y1="15.5" x2="75.8" y2="81.2"/>
			<rect x="75.5" y="15.5" fill="#5D5D5D" width="0.5" height="65.7"/>
		</g>
		<g>
			<line x1="54.2" y1="28.4" x2="54.2" y2="46.1"/>
			<rect x="53.9" y="28.4" fill="#5D5D5D" width="0.5" height="17.7"/>
		</g>
		<g>
			<line x1="99.8" y1="64.8" x2="207.7" y2="64.8"/>
			<rect x="99.8" y="64.5" fill="#5D5D5D" width="107.9" height="0.5"/>
		</g>
		<g>
			<line x1="99.8" y1="87" x2="239.6" y2="87"/>
			<rect x="99.8" y="86.7" fill="#5D5D5D" width="139.8" height="0.5"/>
		</g>
		<g>
			<line x1="99.8" y1="104.1" x2="133.7" y2="104.1"/>
			<rect x="99.8" y="103.8" fill="#5D5D5D" width="33.9" height="0.5"/>
		</g>
		<g>
			<line x1="247.3" y1="111" x2="226.8" y2="111"/>
			<rect x="226.8" y="110.7" fill="#5D5D5D" width="20.5" height="0.5"/>
		</g>
		<g>
			<line x1="75.8" y1="118.5" x2="99.8" y2="118.5"/>
			<rect x="75.8" y="118.2" fill="#5D5D5D" width="24" height="0.5"/>
		</g>
		<g>
			<line x1="35.6" y1="46.1" x2="35.5" y2="88.8"/>
			<rect x="35.3" y="46.1" fill="#5D5D5D" width="0.5" height="42.8"/>
		</g>
		<g>
			<line x1="99.8" y1="16.8" x2="99.8" y2="87"/>
			<rect x="99.5" y="16.8" fill="#5D5D5D" width="0.5" height="70.2"/>
		</g>
		<g>
			<path d="M68.7,123.1c-0.3,0-0.5-0.5-0.5-1.1V88.6c0-0.6,0.2-1.1,0.5-1.1s0.5,0.5,0.5,1.1V122C69.2,122.6,68.9,123.1,68.7,123.1z"
				/>
		</g>
		<g>
			<path d="M70.7,94.8c-0.1,0-0.2,0-0.3-0.1c-0.2-0.2-0.3-0.5-0.1-0.7c0.1-0.1,1.7-2.3,4-2.3c1.8,0,2.9,0.6,3.9,1.2
				c0.9,0.5,1.7,0.9,2.8,0.9c2.3,0,3.9-2.1,4.8-3.8c-0.7,0.4-1.6,0.7-2.7,0.7c-2.3,0-3.5-1.2-4.5-2.2c-1-1-1.9-1.9-3.8-1.9
				c-2.3,0-3.7,1.8-3.7,1.9c-0.2,0.2-0.5,0.3-0.7,0.1c-0.2-0.2-0.3-0.5-0.1-0.7c0.1-0.1,1.7-2.3,4.5-2.3c2.3,0,3.5,1.2,4.5,2.2
				c1,1,1.9,1.9,3.8,1.9c2.3,0,3.7-1.8,3.7-1.9c0.2-0.2,0.4-0.3,0.7-0.1c0.2,0.1,0.3,0.4,0.3,0.6c0,0.1-0.6,1.6-1.6,3.2
				c-0.6,0.9-1.3,1.7-2.1,2.3c-0.9,0.7-2,1.1-3,1.1c-1.4,0-2.3-0.5-3.3-1c-1-0.5-1.9-1-3.4-1c-1.8,0-3.2,1.8-3.2,1.9
				C71,94.7,70.9,94.8,70.7,94.8L70.7,94.8z"/>
		</g>
		<g>
			<rect x="75.3" y="97" width="1" height="11.8"/>
		</g>
		<g>
			<line x1="166.7" y1="117.1" x2="133.8" y2="150"/>
			
				<rect x="150" y="110.3" transform="matrix(0.7052 0.7091 -0.7091 0.7052 138.9763 -67.1577)" fill="#5D5D5D" width="0.5" height="46.5"/>
		</g>
		<g>
			<line x1="187.3" y1="102.5" x2="133.8" y2="156"/>
			
				<rect x="160.3" y="91.4" transform="matrix(0.7052 0.7091 -0.7091 0.7052 138.9629 -75.7268)" fill="#5D5D5D" width="0.5" height="75.6"/>
		</g>
		<g>
			<line x1="166.7" y1="129.1" x2="133.8" y2="162"/>
		</g>
		<g>
			<line x1="188.5" y1="107.3" x2="133.8" y2="162"/>
			
				<rect x="160.9" y="95.9" transform="matrix(0.7052 0.7091 -0.7091 0.7052 142.9605 -74.5746)" fill="#5D5D5D" width="0.5" height="77.3"/>
		</g>
		<g>
			<line x1="166.7" y1="135.1" x2="133.8" y2="167.9"/>
			
				<rect x="150" y="128.3" transform="matrix(0.7052 0.7091 -0.7091 0.7052 151.732 -61.8535)" fill="#5D5D5D" width="0.5" height="46.5"/>
		</g>
		<g>
			<line x1="166.7" y1="141.1" x2="133.8" y2="173.9"/>
		</g>
		<g>
			<line x1="166.7" y1="141.1" x2="133.8" y2="173.9"/>
			
				<rect x="150" y="134.3" transform="matrix(0.7052 0.7091 -0.7091 0.7052 155.9841 -60.0854)" fill="#5D5D5D" width="0.5" height="46.5"/>
		</g>
		<g>
			<line x1="172.6" y1="141.2" x2="133.8" y2="179.9"/>
			
				<rect x="152.9" y="133.1" transform="matrix(0.7052 0.7091 -0.7091 0.7052 159.0124 -61.2824)" fill="#5D5D5D" width="0.5" height="54.8"/>
		</g>
		<g>
			<line x1="166.7" y1="153.1" x2="133.8" y2="185.9"/>
		</g>
		<g>
			<line x1="216.1" y1="103.6" x2="133.8" y2="185.9"/>
			
				<rect x="174.7" y="86.6" transform="matrix(0.7052 0.7091 -0.7091 0.7052 154.2439 -81.3775)" fill="#5D5D5D" width="0.5" height="116.4"/>
		</g>
		<g>
			<line x1="208" y1="117.7" x2="133.8" y2="191.9"/>
			
				<rect x="170.7" y="102.3" transform="matrix(0.7052 0.7091 -0.7091 0.7052 160.1721 -75.5469)" fill="#5D5D5D" width="0.5" height="105"/>
		</g>
		<g>
			<line x1="166.7" y1="165.1" x2="133.8" y2="197.9"/>
		</g>
		<g>
			<line x1="99.8" y1="118.7" x2="49.8" y2="168.6"/>
			
				<rect x="74.5" y="108.3" transform="matrix(0.7052 0.7091 -0.7091 0.7052 123.9056 -10.6886)" fill="#5D5D5D" width="0.5" height="70.7"/>
		</g>
		<g>
			<line x1="99.8" y1="124.7" x2="46.4" y2="178.1"/>
			
				<rect x="72.8" y="113.6" transform="matrix(0.7052 0.7091 -0.7091 0.7052 128.87 -7.1932)" fill="#5D5D5D" width="0.5" height="75.5"/>
		</g>
		<g>
			<line x1="99.8" y1="130.7" x2="79.5" y2="151"/>
			
				<rect x="89.4" y="126.4" transform="matrix(0.7052 0.7091 -0.7091 0.7052 126.2718 -22.0278)" fill="#5D5D5D" width="0.5" height="28.8"/>
		</g>
		<g>
			<line x1="99.8" y1="136.6" x2="66.9" y2="169.5"/>
			
				<rect x="83.1" y="129.8" transform="matrix(0.7052 0.7091 -0.7091 0.7052 133.118 -13.9707)" fill="#5D5D5D" width="0.5" height="46.5"/>
		</g>
		<g>
			<line x1="99.8" y1="142.6" x2="86.6" y2="155.8"/>
			
				<rect x="92.9" y="139.9" transform="matrix(0.7052 0.7091 -0.7091 0.7052 133.2953 -22.079)" fill="#5D5D5D" width="0.5" height="18.6"/>
		</g>
		<g>
			<line x1="99.8" y1="148.6" x2="66.9" y2="181.5"/>
			
				<rect x="83.1" y="141.8" transform="matrix(0.7052 0.7091 -0.7091 0.7052 141.6228 -10.4342)" fill="#5D5D5D" width="0.5" height="46.5"/>
		</g>
		<g>
			<line x1="99.8" y1="154.6" x2="66.9" y2="187.5"/>
		</g>
		<g>
			<line x1="99.8" y1="154.6" x2="66.9" y2="187.5"/>
			
				<rect x="83.1" y="147.8" transform="matrix(0.7052 0.7091 -0.7091 0.7052 145.8752 -8.6659)" fill="#5D5D5D" width="0.5" height="46.5"/>
		</g>
		<g>
			<line x1="99.8" y1="160.6" x2="82.6" y2="177.8"/>
			
				<rect x="90.9" y="157.1" transform="matrix(0.7052 0.7091 -0.7091 0.7052 146.8854 -14.7535)" fill="#5D5D5D" width="0.5" height="24.3"/>
		</g>
		<g>
			<line x1="99.8" y1="166.6" x2="66.9" y2="199.5"/>
		</g>
		<g>
			<line x1="116.5" y1="0.4" x2="99.9" y2="17"/>
			
				<rect x="108" y="-3.1" transform="matrix(0.7071 0.7071 -0.7071 0.7071 37.8247 -73.9842)" fill="#5D5D5D" width="0.5" height="23.5"/>
		</g>
		<g>
			<line x1="111.9" y1="11" x2="99.9" y2="23"/>
			
				<rect x="105.6" y="8.6" transform="matrix(0.7071 0.7071 -0.7071 0.7071 43.0324 -69.8931)" fill="#5D5D5D" width="0.5" height="16.9"/>
		</g>
		<g>
			<line x1="124.4" y1="4.5" x2="99.9" y2="29"/>
			
				<rect x="111.9" y="-0.6" transform="matrix(0.7071 0.7071 -0.7071 0.7071 44.6787 -74.3995)" fill="#5D5D5D" width="0.5" height="34.6"/>
		</g>
		<g>
			<line x1="119.4" y1="15.5" x2="99.9" y2="35"/>
			
				<rect x="109.4" y="11.5" transform="matrix(0.7071 0.7071 -0.7071 0.7071 49.9596 -70.1308)" fill="#5D5D5D" width="0.5" height="27.5"/>
		</g>
		<g>
			<line x1="116.7" y1="24.2" x2="99.9" y2="41"/>
			
				<rect x="108.1" y="20.7" transform="matrix(0.7071 0.7071 -0.7071 0.7071 54.7501 -67.0462)" fill="#5D5D5D" width="0.5" height="23.7"/>
		</g>
		<g>
			<line x1="132.8" y1="14.1" x2="99.9" y2="47"/>
			
				<rect x="116.1" y="7.3" transform="matrix(0.7071 0.7071 -0.7071 0.7071 55.6604 -73.3287)" fill="#5D5D5D" width="0.5" height="46.5"/>
		</g>
		<g>
			<line x1="128.6" y1="24.3" x2="99.9" y2="53"/>
			
				<rect x="114" y="18.4" transform="matrix(0.7071 0.7071 -0.7071 0.7071 60.7706 -69.473)" fill="#5D5D5D" width="0.5" height="40.5"/>
		</g>
		<g>
			<line x1="125" y1="33.9" x2="99.9" y2="58.9"/>
			
				<rect x="112.2" y="28.7" transform="matrix(0.7071 0.7071 -0.7071 0.7071 65.7595 -65.9095)" fill="#5D5D5D" width="0.5" height="35.4"/>
		</g>
		<g>
			<path fill="#5D5D5D" d="M178.2,135.9c-0.3,0.3-0.6,0.5-1,0.6c-0.4,0.1-0.8,0.2-1.1,0.2c-0.4,0-0.8-0.1-1.1-0.3
				c-0.4-0.2-0.7-0.4-1-0.7c-0.3-0.3-0.5-0.6-0.7-1c-0.2-0.4-0.2-0.7-0.3-1.1c0-0.4,0-0.8,0.2-1.1c0.1-0.4,0.3-0.7,0.6-1
				c0.3-0.3,0.6-0.5,1-0.6c0.4-0.1,0.8-0.2,1.1-0.1c0.4,0,0.8,0.1,1.1,0.3c0.4,0.2,0.7,0.4,1,0.7c0.3,0.3,0.5,0.6,0.7,1
				c0.2,0.4,0.2,0.7,0.3,1.1c0,0.4,0,0.8-0.2,1.1C178.7,135.3,178.5,135.6,178.2,135.9z M174.4,135.3c0.2,0.2,0.5,0.4,0.8,0.6
				c0.3,0.1,0.6,0.2,0.9,0.3c0.3,0,0.6,0,0.9-0.1c0.3-0.1,0.6-0.3,0.8-0.5c0.2-0.2,0.4-0.5,0.5-0.8c0.1-0.3,0.1-0.6,0.1-0.9
				c0-0.3-0.1-0.6-0.3-0.9c-0.1-0.3-0.3-0.5-0.5-0.8c-0.2-0.2-0.5-0.4-0.8-0.6c-0.3-0.1-0.6-0.2-0.9-0.2c-0.3,0-0.6,0-0.9,0.1
				c-0.3,0.1-0.6,0.3-0.8,0.5c-0.2,0.2-0.4,0.5-0.5,0.8c-0.1,0.3-0.1,0.6-0.1,0.9s0.1,0.6,0.3,0.9
				C174,134.8,174.2,135.1,174.4,135.3z"/>
			<path fill="#5D5D5D" d="M182.6,131.5c-0.3,0.3-0.6,0.4-0.9,0.5c-0.3,0.1-0.7,0.1-1,0l2,2l-0.4,0.4l-4.5-4.5l0.4-0.4l0.6,0.6
				c-0.1-0.3-0.1-0.7,0-1c0.1-0.3,0.2-0.6,0.5-0.9c0.2-0.2,0.5-0.4,0.7-0.5c0.3-0.1,0.6-0.1,0.8-0.1c0.3,0,0.6,0.1,0.8,0.2
				c0.3,0.1,0.5,0.3,0.7,0.5c0.2,0.2,0.4,0.5,0.5,0.7c0.1,0.3,0.2,0.5,0.2,0.8c0,0.3,0,0.6-0.1,0.8
				C183,131.1,182.8,131.3,182.6,131.5z M182.1,131.3c0.2-0.2,0.3-0.4,0.4-0.6c0.1-0.2,0.1-0.4,0.1-0.6c0-0.2-0.1-0.4-0.2-0.6
				c-0.1-0.2-0.2-0.4-0.4-0.6c-0.2-0.2-0.4-0.3-0.6-0.4c-0.2-0.1-0.4-0.1-0.7-0.2c-0.2,0-0.4,0-0.7,0.1c-0.2,0.1-0.4,0.2-0.6,0.4
				c-0.1,0.1-0.2,0.2-0.3,0.4c-0.1,0.2-0.1,0.3-0.2,0.5c0,0.2,0,0.3,0,0.5s0.1,0.3,0.2,0.4l1,1c0.2,0.1,0.3,0.1,0.5,0.1
				c0.2,0,0.3,0,0.5,0c0.2,0,0.3-0.1,0.5-0.1C181.9,131.5,182,131.4,182.1,131.3z"/>
			<path fill="#5D5D5D" d="M186.1,128c-0.2,0.2-0.5,0.4-0.8,0.5c-0.3,0.1-0.6,0.2-0.9,0.1c-0.3,0-0.6-0.1-0.9-0.2
				c-0.3-0.1-0.5-0.3-0.8-0.5c-0.2-0.2-0.4-0.5-0.5-0.8c-0.1-0.3-0.2-0.6-0.2-0.9c0-0.3,0-0.6,0.2-0.9c0.1-0.3,0.3-0.5,0.5-0.8
				c0.2-0.2,0.5-0.4,0.8-0.5c0.3-0.1,0.6-0.2,0.9-0.1c0.3,0,0.6,0.1,0.8,0.2c0.3,0.1,0.5,0.3,0.7,0.5c0,0,0.1,0.1,0.1,0.1
				c0,0,0.1,0.1,0.1,0.1l-2.7,2.7c0.2,0.2,0.4,0.3,0.6,0.4c0.2,0.1,0.4,0.1,0.6,0.1c0.2,0,0.4,0,0.6-0.1c0.2-0.1,0.4-0.2,0.5-0.3
				c0.1-0.1,0.2-0.2,0.3-0.4c0.1-0.1,0.1-0.3,0.2-0.4c0-0.1,0.1-0.3,0.1-0.4c0-0.1,0-0.3-0.1-0.4l0.5-0.3c0.1,0.2,0.1,0.3,0.1,0.5
				c0,0.2,0,0.4-0.1,0.6c0,0.2-0.1,0.4-0.2,0.6C186.4,127.7,186.3,127.9,186.1,128z M185.5,125c-0.2-0.2-0.4-0.3-0.6-0.3
				c-0.2-0.1-0.4-0.1-0.6-0.1c-0.2,0-0.4,0-0.6,0.1c-0.2,0.1-0.4,0.2-0.5,0.4c-0.2,0.2-0.3,0.3-0.4,0.5c-0.1,0.2-0.1,0.4-0.1,0.6
				c0,0.2,0,0.4,0.1,0.6c0.1,0.2,0.2,0.4,0.4,0.6L185.5,125z"/>
			<path fill="#5D5D5D" d="M190.9,123.1l-0.4,0.4l-1.8-1.8c-0.4-0.4-0.7-0.6-1-0.7c-0.3-0.1-0.5,0-0.8,0.3c-0.1,0.1-0.2,0.3-0.3,0.4
				c-0.1,0.2-0.1,0.3-0.2,0.5c0,0.2,0,0.4,0,0.6c0,0.2,0.1,0.4,0.2,0.5l1.9,1.9l-0.4,0.4l-3.2-3.2l0.4-0.4l0.7,0.7
				c-0.1-0.2-0.1-0.4-0.1-0.6c0-0.2,0-0.4,0.1-0.6c0-0.2,0.1-0.4,0.2-0.5c0.1-0.2,0.2-0.3,0.4-0.5c0.2-0.2,0.4-0.3,0.6-0.4
				c0.2-0.1,0.4-0.1,0.6,0c0.2,0,0.4,0.1,0.6,0.3c0.2,0.1,0.4,0.3,0.6,0.5L190.9,123.1z"/>
			<path fill="#5D5D5D" d="M192.8,121.2l-2.5-6.1l0.3-0.3l6.1,2.5l-0.5,0.5l-1.9-0.8l-2,1.9l0.8,1.9L192.8,121.2z M191,115.4l1.3,3
				l1.8-1.8L191,115.4z"/>
			<path fill="#5D5D5D" d="M196.1,112.3c-0.3,0.3-0.4,0.6-0.5,1c-0.1,0.4,0,0.7,0.2,1l2,2l-0.4,0.4l-3.2-3.2l0.4-0.4l0.8,0.8
				c-0.1-0.3-0.2-0.7-0.1-1c0-0.3,0.1-0.6,0.4-0.8c0,0,0.1-0.1,0.1-0.1c0,0,0.1-0.1,0.1-0.1L196.1,112.3z"/>
			<path fill="#5D5D5D" d="M200.9,113.2c-0.2,0.2-0.5,0.4-0.8,0.5c-0.3,0.1-0.6,0.2-0.9,0.1c-0.3,0-0.6-0.1-0.9-0.2
				c-0.3-0.1-0.5-0.3-0.8-0.5c-0.2-0.2-0.4-0.5-0.5-0.7c-0.1-0.3-0.2-0.6-0.2-0.9c0-0.3,0-0.6,0.1-0.9c0.1-0.3,0.3-0.5,0.5-0.8
				s0.5-0.4,0.8-0.5c0.3-0.1,0.6-0.2,0.9-0.1s0.6,0.1,0.8,0.2c0.3,0.1,0.5,0.3,0.7,0.5c0,0,0.1,0.1,0.1,0.1c0,0,0,0.1,0.1,0.1
				l-2.7,2.7c0.2,0.2,0.4,0.3,0.6,0.4c0.2,0.1,0.4,0.1,0.6,0.1c0.2,0,0.4,0,0.6-0.1c0.2-0.1,0.4-0.2,0.5-0.3
				c0.1-0.1,0.2-0.2,0.3-0.4s0.1-0.3,0.2-0.4c0-0.1,0.1-0.3,0-0.4c0-0.1,0-0.3-0.1-0.4l0.5-0.3c0.1,0.2,0.1,0.3,0.1,0.5
				c0,0.2,0,0.4-0.1,0.6c0,0.2-0.1,0.4-0.2,0.6C201.2,112.9,201.1,113.1,200.9,113.2z M200.3,110.2c-0.2-0.2-0.4-0.3-0.6-0.3
				c-0.2-0.1-0.4-0.1-0.6-0.1c-0.2,0-0.4,0-0.6,0.1c-0.2,0.1-0.4,0.2-0.5,0.4c-0.2,0.2-0.3,0.3-0.4,0.5c-0.1,0.2-0.1,0.4-0.1,0.6
				c0,0.2,0,0.4,0.1,0.6c0.1,0.2,0.2,0.4,0.4,0.6L200.3,110.2z"/>
			<path fill="#5D5D5D" d="M203.9,110.2c-0.2,0.2-0.3,0.3-0.5,0.4c-0.2,0.1-0.4,0.1-0.6,0.1c-0.2,0-0.4,0-0.5-0.1
				c-0.2-0.1-0.3-0.2-0.5-0.3c-0.1-0.1-0.2-0.3-0.3-0.5c-0.1-0.2-0.1-0.4,0-0.6c0-0.2,0.1-0.4,0.2-0.6c0.1-0.2,0.3-0.4,0.5-0.6
				c0.2-0.2,0.3-0.3,0.5-0.4c0.2-0.1,0.4-0.2,0.6-0.3l-0.3-0.3c-0.3-0.3-0.6-0.4-0.9-0.4c-0.3,0-0.6,0.1-0.9,0.4
				c-0.2,0.2-0.3,0.4-0.4,0.6c-0.1,0.2-0.2,0.5-0.2,0.8l-0.4-0.1c0.1-0.3,0.2-0.7,0.3-0.9c0.1-0.3,0.3-0.5,0.5-0.7
				c0.4-0.4,0.8-0.6,1.3-0.6c0.5,0,0.9,0.2,1.3,0.6l1.4,1.4c0.1,0.1,0.2,0.1,0.3,0l0.4,0.4c0,0-0.1,0.1-0.1,0.1c0,0-0.1,0.1-0.1,0.1
				c-0.1,0.1-0.2,0.1-0.3,0.1c-0.1,0-0.2,0-0.3-0.1l-0.3-0.2c0,0.3,0,0.7-0.1,1C204.4,109.7,204.2,110,203.9,110.2z M203.7,109.8
				c0.2-0.2,0.3-0.4,0.4-0.7c0.1-0.3,0.1-0.5,0.1-0.8c0-0.1,0-0.1,0-0.2c0-0.1-0.1-0.1-0.1-0.1l-0.5-0.5c-0.2,0.1-0.4,0.2-0.6,0.3
				c-0.2,0.1-0.3,0.3-0.5,0.4c-0.3,0.3-0.5,0.6-0.5,0.9c-0.1,0.3,0,0.6,0.2,0.8c0.1,0.1,0.2,0.2,0.3,0.2c0.1,0.1,0.2,0.1,0.4,0.1
				c0.1,0,0.3,0,0.4-0.1C203.5,110,203.6,109.9,203.7,109.8z"/>
		</g>
		<g>
			<line x1="166.7" y1="104.7" x2="133.8" y2="137.6"/>
			
				<rect x="150" y="97.9" transform="matrix(0.7052 0.7091 -0.7091 0.7052 130.1882 -70.812)" fill="#5D5D5D" width="0.5" height="46.5"/>
		</g>
		<g>
			<line x1="174.3" y1="103.1" x2="133.8" y2="143.6"/>
			
				<rect x="153.8" y="94.7" transform="matrix(0.7052 0.7091 -0.7091 0.7052 132.868 -72.8553)" fill="#5D5D5D" width="0.5" height="57.2"/>
		</g>
		<g>
			<line x1="93.9" y1="118.7" x2="62.6" y2="150"/>
			
				<rect x="78" y="112.2" transform="matrix(0.7052 0.7091 -0.7091 0.7052 118.2922 -15.8556)" fill="#5D5D5D" width="0.5" height="44.3"/>
		</g>
		<g>
			<line x1="81.6" y1="118.7" x2="75.4" y2="124.9"/>
			
				<rect x="78.2" y="117.4" transform="matrix(0.7071 0.7071 -0.7071 0.7071 109.1156 -19.8346)" fill="#5D5D5D" width="0.5" height="8.9"/>
		</g>
		<g>
			<line x1="69.6" y1="130.7" x2="51.7" y2="148.6"/>
			
				<rect x="60.4" y="126.9" transform="matrix(0.7052 0.7091 -0.7091 0.7052 116.8901 -1.8525)" fill="#5D5D5D" width="0.5" height="25.3"/>
		</g>
		<g>
			<line x1="87.8" y1="118.5" x2="60.2" y2="146.1"/>
			
				<rect x="73.7" y="112.7" transform="matrix(0.7052 0.7091 -0.7091 0.7052 115.6237 -13.4591)" fill="#5D5D5D" width="0.5" height="39.1"/>
		</g>
		<g>
			<rect x="35" y="117" width="1" height="14.5"/>
		</g>
		<g>
			<rect x="48.9" y="99.2" width="26.9" height="1"/>
		</g>
		<g>
			<rect x="37.8" y="125.1" width="30.8" height="0.5"/>
		</g>
		<g>
			<rect x="75.3" y="114.4" width="1" height="17.1"/>
		</g>
		<g>
			<line x1="57.2" y1="130.7" x2="38.4" y2="149.5"/>
			
				<rect x="47.6" y="126.8" transform="matrix(0.7052 0.7091 -0.7091 0.7052 113.437 7.3912)" fill="#5D5D5D" width="0.5" height="26.6"/>
		</g>
		<g>
			<line x1="63.1" y1="130.8" x2="44.2" y2="149.7"/>
			
				<rect x="53.4" y="126.9" transform="matrix(0.7052 0.7091 -0.7091 0.7052 115.2753 3.3086)" fill="#5D5D5D" width="0.5" height="26.8"/>
		</g>
		<g>
			<line x1="45.3" y1="130.7" x2="33.3" y2="142.6"/>
			
				<rect x="39" y="128.2" transform="matrix(0.7052 0.7091 -0.7091 0.7052 108.493 12.424)" fill="#5D5D5D" width="0.5" height="16.9"/>
		</g>
		<g>
			<line x1="50.6" y1="131.3" x2="39.3" y2="142.6"/>
			
				<rect x="44.7" y="129" transform="matrix(0.7052 0.7091 -0.7091 0.7052 110.3954 8.4975)" fill="#5D5D5D" width="0.5" height="16"/>
		</g>
		<g>
			<line x1="99.8" y1="166.6" x2="66.9" y2="199.5"/>
		</g>
		<g>
			<line x1="99.8" y1="166.6" x2="66.9" y2="199.5"/>
			
				<rect x="83.1" y="159.8" transform="matrix(0.7052 0.7091 -0.7091 0.7052 154.3785 -5.13)" fill="#5D5D5D" width="0.5" height="46.5"/>
		</g>
		<g>
			<line x1="99.8" y1="172.6" x2="80.5" y2="191.9"/>
			
				<rect x="89.9" y="168.6" transform="matrix(0.7052 0.7091 -0.7091 0.7052 155.8144 -10.1873)" fill="#5D5D5D" width="0.5" height="27.2"/>
		</g>
		<g>
			<line x1="166.7" y1="165.1" x2="133.8" y2="197.9"/>
		</g>
		<g>
			<line x1="166.7" y1="165.1" x2="133.8" y2="197.9"/>
			
				<rect x="150" y="158.3" transform="matrix(0.7052 0.7091 -0.7091 0.7052 172.9922 -53.0129)" fill="#5D5D5D" width="0.5" height="46.5"/>
		</g>
		<g>
			<line x1="166.7" y1="171.1" x2="138.2" y2="199.6"/>
			
				<rect x="152.2" y="165.2" transform="matrix(0.7052 0.7091 -0.7091 0.7052 176.3442 -53.4262)" fill="#5D5D5D" width="0.5" height="40.3"/>
		</g>
		<g>
			<line x1="170.9" y1="172.6" x2="143.8" y2="199.7"/>
			
				<rect x="157.1" y="167" transform="matrix(0.7052 0.7091 -0.7091 0.7052 178.408 -56.7049)" fill="#5D5D5D" width="0.5" height="38.3"/>
		</g>
		<g>
			<line x1="170.9" y1="178.6" x2="150.1" y2="199.5"/>
			
				<rect x="160.2" y="174.3" transform="matrix(0.7052 0.7091 -0.7091 0.7052 181.3737 -58.0544)" fill="#5D5D5D" width="0.5" height="29.5"/>
		</g>
		<g>
			<line x1="189" y1="166.6" x2="156.1" y2="199.5"/>
		</g>
		<g>
			<line x1="189" y1="166.6" x2="156.1" y2="199.5"/>
			
				<rect x="172.3" y="159.8" transform="matrix(0.7052 0.7091 -0.7091 0.7052 180.6842 -68.3908)" fill="#5D5D5D" width="0.5" height="46.5"/>
		</g>
		<g>
			<line x1="189" y1="172.6" x2="161.9" y2="199.7"/>
			
				<rect x="175.2" y="167" transform="matrix(0.7071 0.7071 -0.7071 0.7071 183.0347 -69.5472)" fill="#5D5D5D" width="0.5" height="38.3"/>
		</g>
		<g>
			<line x1="179.8" y1="187.5" x2="167.7" y2="199.6"/>
			
				<rect x="173.5" y="185" transform="matrix(0.7071 0.7071 -0.7071 0.7071 187.7595 -66.1905)" fill="#5D5D5D" width="0.5" height="17.1"/>
		</g>
		<g>
			<line x1="162.6" y1="102.6" x2="133.8" y2="131.4"/>
			
				<rect x="147.9" y="96.6" transform="matrix(0.7071 0.7071 -0.7071 0.7071 126.14 -70.5264)" fill="#5D5D5D" width="0.5" height="40.7"/>
		</g>
		<g>
			<line x1="152.3" y1="106.9" x2="133.8" y2="125.3"/>
			
				<rect x="142.8" y="103.1" transform="matrix(0.7071 0.7071 -0.7071 0.7071 123.9994 -67.1284)" fill="#5D5D5D" width="0.5" height="26.1"/>
		</g>
		<g>
			<line x1="140.9" y1="105.8" x2="133.8" y2="112.9"/>
			
				<rect x="137.1" y="104.3" transform="matrix(0.7071 0.7071 -0.7071 0.7071 117.5766 -65.1066)" fill="#5D5D5D" width="0.5" height="10.1"/>
		</g>
		<g>
			<line x1="150.8" y1="101.9" x2="133.8" y2="118.9"/>
			
				<rect x="142.1" y="98.4" transform="matrix(0.7071 0.7071 -0.7071 0.7071 119.775 -68.2807)" fill="#5D5D5D" width="0.5" height="24"/>
		</g>
		<g>
			<line x1="121.1" y1="44.2" x2="100.3" y2="65"/>
			
				<rect x="110.4" y="39.8" transform="matrix(0.7071 0.7071 -0.7071 0.7071 70.9959 -62.2781)" fill="#5D5D5D" width="0.5" height="29.4"/>
		</g>
		<g>
			<line x1="124.4" y1="46.4" x2="105.9" y2="64.9"/>
			
				<rect x="114.9" y="42.6" transform="matrix(0.7071 0.7071 -0.7071 0.7071 73.106 -65.1348)" fill="#5D5D5D" width="0.5" height="26.2"/>
		</g>
		<g>
			<line x1="130.1" y1="46.4" x2="112.1" y2="65.2"/>
			
				<rect x="120.8" y="42.8" transform="matrix(0.7226 0.6913 -0.6913 0.7226 72.1848 -68.2156)" fill="#5D5D5D" width="0.5" height="26.1"/>
		</g>
		<g>
			<line x1="150.4" y1="32.1" x2="117.5" y2="64.9"/>
			
				<rect x="133.7" y="25.3" transform="matrix(0.7071 0.7071 -0.7071 0.7071 73.5423 -80.5177)" fill="#5D5D5D" width="0.5" height="46.5"/>
		</g>
		<g>
			<line x1="156.4" y1="32.1" x2="123.5" y2="64.9"/>
			
				<rect x="139.7" y="25.3" transform="matrix(0.7071 0.7071 -0.7071 0.7071 75.2986 -84.7577)" fill="#5D5D5D" width="0.5" height="46.5"/>
		</g>
		<g>
			<line x1="150.4" y1="44.1" x2="129.5" y2="64.9"/>
			
				<rect x="139.7" y="39.8" transform="matrix(0.7071 0.7071 -0.7071 0.7071 79.5391 -83.0017)" fill="#5D5D5D" width="0.5" height="29.5"/>
		</g>
		<g>
			<line x1="166.8" y1="33.9" x2="135.8" y2="64.9"/>
			
				<rect x="151.1" y="27.5" transform="matrix(0.7071 0.7071 -0.7071 0.7071 79.2524 -92.5352)" fill="#5D5D5D" width="0.5" height="43.8"/>
		</g>
		<g>
			<line x1="166.8" y1="39.9" x2="141.8" y2="64.9"/>
			
				<rect x="154.1" y="34.7" transform="matrix(0.7071 0.7071 -0.7071 0.7071 82.2509 -93.7769)" fill="#5D5D5D" width="0.5" height="35.4"/>
		</g>
		<g>
			<line x1="166.8" y1="45.9" x2="147.8" y2="64.9"/>
			
				<rect x="157" y="41.9" transform="matrix(0.7071 0.7071 -0.7071 0.7071 85.2592 -94.9951)" fill="#5D5D5D" width="0.5" height="26.9"/>
		</g>
		<g>
			<path fill="#5D5D5D" d="M130.1,41.1c-0.3-0.3-0.5-0.6-0.6-0.9c-0.2-0.4-0.3-0.7-0.3-1.1c0-0.4,0-0.8,0.2-1.1
				c0.1-0.4,0.4-0.7,0.7-1.1c0.4-0.4,0.8-0.6,1.3-0.7c0.4-0.1,0.9-0.1,1.3,0.1l-0.1,0.6c-0.2-0.1-0.4-0.1-0.6-0.1
				c-0.2,0-0.4,0-0.6,0.1c-0.2,0.1-0.3,0.1-0.5,0.2c-0.1,0.1-0.3,0.2-0.4,0.3c-0.3,0.3-0.4,0.5-0.5,0.8c-0.1,0.3-0.1,0.6-0.1,0.9
				c0,0.3,0.1,0.6,0.3,0.9c0.1,0.3,0.3,0.5,0.5,0.8c0.2,0.2,0.5,0.4,0.8,0.6c0.3,0.1,0.6,0.2,0.9,0.2s0.6,0,0.9-0.1s0.6-0.3,0.8-0.5
				c0.1-0.1,0.2-0.3,0.3-0.4s0.2-0.3,0.2-0.5c0.1-0.2,0.1-0.4,0.1-0.6c0-0.2,0-0.4-0.1-0.6l0.5-0.2c0.1,0.2,0.1,0.5,0.1,0.7
				c0,0.2,0,0.5-0.1,0.7c-0.1,0.2-0.2,0.5-0.3,0.7c-0.1,0.2-0.3,0.4-0.4,0.6c-0.3,0.3-0.6,0.5-1,0.6c-0.4,0.1-0.8,0.2-1.2,0.1
				c-0.4,0-0.8-0.1-1.1-0.3C130.7,41.6,130.4,41.3,130.1,41.1z"/>
			<path fill="#5D5D5D" d="M137.6,38.1c-0.2,0.2-0.3,0.3-0.5,0.4c-0.2,0.1-0.4,0.1-0.6,0.1c-0.2,0-0.4,0-0.5-0.1
				c-0.2-0.1-0.3-0.2-0.5-0.3c-0.1-0.1-0.2-0.3-0.3-0.5c-0.1-0.2-0.1-0.4,0-0.6c0-0.2,0.1-0.4,0.2-0.6c0.1-0.2,0.3-0.4,0.5-0.6
				c0.2-0.2,0.3-0.3,0.5-0.4c0.2-0.1,0.4-0.2,0.6-0.3l-0.3-0.3c-0.3-0.3-0.6-0.4-0.9-0.4c-0.3,0-0.6,0.1-0.9,0.4
				c-0.2,0.2-0.3,0.4-0.4,0.6c-0.1,0.2-0.2,0.5-0.2,0.8l-0.4-0.1c0.1-0.3,0.2-0.7,0.3-0.9c0.1-0.3,0.3-0.5,0.5-0.7
				c0.4-0.4,0.8-0.6,1.3-0.6c0.5,0,0.9,0.2,1.3,0.6l1.4,1.4c0.1,0.1,0.2,0.1,0.3,0l0.4,0.4c0,0-0.1,0.1-0.1,0.1c0,0-0.1,0.1-0.1,0.1
				c-0.1,0.1-0.2,0.1-0.3,0.1c-0.1,0-0.2,0-0.3-0.1l-0.3-0.2c0,0.3,0,0.7-0.1,1C138,37.6,137.8,37.9,137.6,38.1z M137.4,37.7
				c0.2-0.2,0.3-0.4,0.4-0.7c0.1-0.3,0.1-0.5,0.1-0.8c0-0.1,0-0.1,0-0.2s-0.1-0.1-0.1-0.2l-0.5-0.5c-0.2,0.1-0.4,0.2-0.6,0.3
				c-0.2,0.1-0.3,0.3-0.5,0.4c-0.3,0.3-0.5,0.6-0.5,0.9c-0.1,0.3,0,0.6,0.2,0.8c0.1,0.1,0.2,0.2,0.3,0.2c0.1,0,0.2,0.1,0.4,0.1
				c0.1,0,0.3,0,0.4-0.1C137.1,37.9,137.3,37.8,137.4,37.7z"/>
			<path fill="#5D5D5D" d="M142.7,32.9l-0.4,0.4l-1.8-1.8c-0.4-0.4-0.7-0.6-1-0.7c-0.3-0.1-0.5,0-0.8,0.3c-0.1,0.1-0.2,0.3-0.3,0.4
				c-0.1,0.2-0.1,0.3-0.2,0.5c0,0.2,0,0.4,0,0.6c0,0.2,0.1,0.4,0.2,0.5l1.9,1.9l-0.4,0.4l-3.2-3.2l0.4-0.4l0.7,0.7
				c0-0.2-0.1-0.4-0.1-0.6c0-0.2,0-0.4,0.1-0.6c0.1-0.2,0.1-0.4,0.2-0.5c0.1-0.2,0.2-0.3,0.4-0.5c0.2-0.2,0.4-0.3,0.5-0.4
				c0.2-0.1,0.4-0.1,0.6,0c0.2,0,0.4,0.1,0.6,0.3c0.2,0.1,0.4,0.3,0.6,0.5L142.7,32.9z"/>
			<path fill="#5D5D5D" d="M144.9,30.3c0,0,0,0.1-0.1,0.2c0,0.1-0.1,0.1-0.1,0.2c0,0.1-0.1,0.2-0.2,0.3c-0.1,0.1-0.1,0.2-0.2,0.3
				c-0.1,0.1-0.2,0.2-0.3,0.2c-0.1,0.1-0.2,0.1-0.3,0.1c-0.1,0-0.2,0-0.3,0c-0.1,0-0.2-0.1-0.3-0.2l-2.3-2.3l-0.4,0.4l-0.3-0.3
				l0.4-0.4l-1.1-1.1l0.4-0.4l1.1,1.1l0.7-0.7l0.3,0.3l-0.7,0.7l2.2,2.2c0.1,0.1,0.3,0.2,0.4,0.1c0.1,0,0.2-0.1,0.3-0.2
				c0.1-0.1,0.2-0.2,0.3-0.4c0.1-0.1,0.1-0.2,0.1-0.3L144.9,30.3z"/>
			<path fill="#5D5D5D" d="M147,28.7c-0.2,0.2-0.5,0.4-0.8,0.5c-0.3,0.1-0.6,0.2-0.9,0.1s-0.6-0.1-0.9-0.2c-0.3-0.1-0.5-0.3-0.8-0.5
				c-0.2-0.2-0.4-0.5-0.5-0.7c-0.1-0.3-0.2-0.6-0.2-0.9c0-0.3,0-0.6,0.2-0.9c0.1-0.3,0.3-0.5,0.5-0.8c0.2-0.2,0.5-0.4,0.8-0.5
				c0.3-0.1,0.6-0.2,0.9-0.1c0.3,0,0.6,0.1,0.8,0.2c0.3,0.1,0.5,0.3,0.7,0.5c0,0,0.1,0.1,0.1,0.1c0,0,0.1,0.1,0.1,0.1l-2.7,2.7
				c0.2,0.2,0.4,0.3,0.6,0.4c0.2,0.1,0.4,0.1,0.6,0.1c0.2,0,0.4,0,0.6-0.1c0.2-0.1,0.4-0.2,0.5-0.3c0.1-0.1,0.2-0.2,0.3-0.4
				s0.1-0.3,0.2-0.4c0-0.1,0.1-0.3,0.1-0.4c0-0.1,0-0.3-0.1-0.4l0.5-0.3c0.1,0.2,0.1,0.3,0.1,0.5c0,0.2,0,0.4-0.1,0.6
				c0,0.2-0.1,0.4-0.2,0.6C147.3,28.3,147.2,28.5,147,28.7z M146.4,25.7c-0.2-0.2-0.4-0.3-0.6-0.3c-0.2-0.1-0.4-0.1-0.6-0.1
				c-0.2,0-0.4,0-0.6,0.1c-0.2,0.1-0.4,0.2-0.5,0.4s-0.3,0.3-0.4,0.5c-0.1,0.2-0.1,0.4-0.1,0.6c0,0.2,0,0.4,0.1,0.6
				c0.1,0.2,0.2,0.4,0.4,0.6L146.4,25.7z"/>
			<path fill="#5D5D5D" d="M150.6,25.1c-0.2,0.2-0.5,0.4-0.8,0.5c-0.3,0.1-0.6,0.2-0.9,0.1c-0.3,0-0.6-0.1-0.9-0.2
				c-0.3-0.1-0.5-0.3-0.8-0.5c-0.2-0.2-0.4-0.5-0.5-0.8c-0.1-0.3-0.2-0.6-0.2-0.9s0-0.6,0.1-0.9c0.1-0.3,0.3-0.5,0.5-0.8
				c0.2-0.2,0.5-0.4,0.8-0.5c0.3-0.1,0.6-0.2,0.9-0.1c0.3,0,0.6,0.1,0.8,0.2c0.3,0.1,0.5,0.3,0.7,0.5c0,0,0.1,0.1,0.1,0.1
				c0,0,0.1,0.1,0.1,0.1l-2.7,2.7c0.2,0.2,0.4,0.3,0.6,0.4c0.2,0.1,0.4,0.1,0.6,0.1c0.2,0,0.4,0,0.6-0.1c0.2-0.1,0.4-0.2,0.5-0.3
				c0.1-0.1,0.2-0.2,0.3-0.4s0.1-0.3,0.2-0.4c0-0.1,0.1-0.3,0-0.4c0-0.1,0-0.3-0.1-0.4l0.5-0.3c0.1,0.2,0.1,0.3,0.1,0.5
				c0,0.2,0,0.4-0.1,0.6s-0.1,0.4-0.2,0.6C150.9,24.8,150.8,24.9,150.6,25.1z M150,22.1c-0.2-0.2-0.4-0.3-0.6-0.3
				c-0.2-0.1-0.4-0.1-0.6-0.1c-0.2,0-0.4,0-0.6,0.1c-0.2,0.1-0.4,0.2-0.5,0.4s-0.3,0.3-0.4,0.5c-0.1,0.2-0.1,0.4-0.1,0.6
				c0,0.2,0,0.4,0.1,0.6c0.1,0.2,0.2,0.4,0.3,0.6L150,22.1z"/>
			<path fill="#5D5D5D" d="M155.4,20.2l-0.4,0.4l-1.8-1.8c-0.4-0.4-0.7-0.6-1-0.7c-0.3-0.1-0.5,0-0.8,0.3c-0.1,0.1-0.2,0.3-0.3,0.4
				c-0.1,0.2-0.1,0.3-0.2,0.5c0,0.2,0,0.4,0,0.6c0,0.2,0.1,0.4,0.2,0.5l1.9,1.9l-0.4,0.4l-3.2-3.2l0.4-0.4l0.7,0.7
				c-0.1-0.2-0.1-0.4-0.1-0.6c0-0.2,0-0.4,0.1-0.6c0.1-0.2,0.1-0.4,0.2-0.5c0.1-0.2,0.2-0.3,0.4-0.5c0.2-0.2,0.4-0.3,0.5-0.4
				c0.2-0.1,0.4-0.1,0.6,0c0.2,0,0.4,0.1,0.6,0.3c0.2,0.1,0.4,0.3,0.6,0.5L155.4,20.2z"/>
		</g>
		<g>
			<path fill="#5D5D5D" d="M38.2,172.9c0.2,0.2,0.3,0.3,0.3,0.5c0.1,0.2,0.1,0.4,0.1,0.6c0,0.2-0.1,0.4-0.2,0.6
				c-0.1,0.2-0.2,0.4-0.4,0.6l-2,2l-4.3-4.3l2.1-2.1c0.2-0.2,0.3-0.3,0.5-0.3c0.2-0.1,0.4-0.1,0.6-0.1c0.2,0,0.4,0.1,0.6,0.2
				c0.2,0.1,0.3,0.2,0.5,0.3c0.2,0.2,0.4,0.5,0.4,0.8c0.1,0.3,0.1,0.6-0.1,0.9c0.3-0.2,0.7-0.2,1-0.2
				C37.6,172.5,37.9,172.7,38.2,172.9z M32.5,172.9l1.6,1.6l1.5-1.5c0.1-0.1,0.2-0.2,0.2-0.4c0-0.1,0.1-0.3,0.1-0.4
				c0-0.1,0-0.3-0.1-0.4c-0.1-0.1-0.1-0.2-0.2-0.4c-0.1-0.1-0.2-0.2-0.4-0.3s-0.3-0.1-0.4-0.1c-0.1,0-0.3,0-0.4,0.1
				c-0.1,0-0.2,0.1-0.3,0.2L32.5,172.9z M37.6,173.3c-0.1-0.1-0.2-0.2-0.4-0.3c-0.1-0.1-0.3-0.1-0.4-0.1c-0.1,0-0.3,0-0.4,0.1
				s-0.3,0.1-0.4,0.2l-1.7,1.7l1.6,1.6l1.6-1.6c0.1-0.1,0.2-0.2,0.2-0.4c0.1-0.1,0.1-0.3,0.1-0.4c0-0.1,0-0.3-0.1-0.4
				C37.8,173.5,37.8,173.4,37.6,173.3z"/>
			<path fill="#5D5D5D" d="M41,172.4c-0.3,0.3-0.7,0.5-1.1,0.4c-0.4-0.1-0.8-0.3-1.3-0.8l-1.9-1.9l0.4-0.4l1.8,1.8
				c0.7,0.7,1.3,0.8,1.8,0.3c0.1-0.1,0.2-0.3,0.3-0.4c0.1-0.2,0.1-0.3,0.1-0.5c0-0.2,0-0.4,0-0.5c0-0.2-0.1-0.4-0.2-0.6l-2-2
				l0.4-0.4l2.6,2.6c0.1,0.1,0.2,0.1,0.3,0l0.4,0.4c-0.1,0.1-0.1,0.2-0.2,0.2c-0.1,0.1-0.2,0.1-0.3,0.2c-0.1,0-0.2,0-0.3-0.1
				l-0.4-0.4c0.1,0.4,0.1,0.8,0,1.1C41.5,171.8,41.3,172.1,41,172.4z"/>
			<path fill="#5D5D5D" d="M44.7,168.7c-0.2,0.2-0.5,0.4-0.8,0.6c-0.3,0.2-0.6,0.2-1,0.3l-0.1-0.5c0.3,0,0.6-0.1,0.9-0.2
				c0.3-0.1,0.5-0.3,0.7-0.5c0.3-0.3,0.4-0.5,0.5-0.8c0-0.3,0-0.5-0.2-0.7c-0.1-0.1-0.2-0.1-0.3-0.2c-0.1,0-0.2,0-0.3,0
				c-0.1,0-0.3,0.1-0.4,0.2c-0.2,0.1-0.3,0.2-0.5,0.3c-0.2,0.1-0.4,0.3-0.6,0.3c-0.2,0.1-0.3,0.1-0.5,0.2c-0.1,0-0.3,0-0.4,0
				c-0.1,0-0.3-0.1-0.4-0.3c-0.2-0.2-0.3-0.3-0.3-0.5c-0.1-0.2-0.1-0.4,0-0.6c0-0.2,0.1-0.4,0.2-0.6c0.1-0.2,0.2-0.4,0.4-0.5
				c0.2-0.2,0.5-0.4,0.8-0.5c0.3-0.1,0.5-0.2,0.8-0.2l0,0.4c-0.2,0-0.5,0-0.7,0.2c-0.2,0.1-0.4,0.3-0.6,0.4
				c-0.1,0.1-0.2,0.2-0.3,0.3c-0.1,0.1-0.1,0.2-0.1,0.4c0,0.1,0,0.2,0,0.4c0,0.1,0.1,0.2,0.2,0.3c0.1,0.1,0.2,0.1,0.2,0.2
				c0.1,0,0.2,0,0.3,0c0.1,0,0.2-0.1,0.4-0.1c0.1-0.1,0.3-0.2,0.5-0.3c0.3-0.2,0.5-0.3,0.7-0.4c0.2-0.1,0.4-0.2,0.6-0.2
				c0.2,0,0.3,0,0.5,0c0.1,0,0.3,0.1,0.4,0.3c0.3,0.3,0.4,0.6,0.4,1C45.3,167.9,45.1,168.3,44.7,168.7z"/>
			<path fill="#5D5D5D" d="M49.3,164.1l-0.4,0.4l-1.8-1.8c-0.4-0.4-0.7-0.6-1-0.6c-0.3-0.1-0.6,0-0.8,0.3c-0.1,0.1-0.2,0.3-0.3,0.4
				c-0.1,0.2-0.1,0.3-0.1,0.5c0,0.2,0,0.4,0,0.6c0,0.2,0.1,0.4,0.2,0.5l1.9,1.9l-0.4,0.4l-4.5-4.5l0.4-0.4l2,2
				c-0.1-0.4-0.1-0.7,0-1.1c0.1-0.4,0.3-0.7,0.5-0.9c0.2-0.2,0.4-0.3,0.6-0.4c0.2-0.1,0.4-0.1,0.6,0c0.2,0,0.4,0.1,0.6,0.3
				c0.2,0.1,0.4,0.3,0.6,0.5L49.3,164.1z"/>
			<path fill="#5D5D5D" d="M51.6,161.9c-0.2,0.2-0.5,0.4-0.8,0.5c-0.3,0.1-0.6,0.2-0.9,0.1c-0.3,0-0.6-0.1-0.9-0.2
				c-0.3-0.1-0.5-0.3-0.8-0.5c-0.2-0.2-0.4-0.5-0.5-0.8c-0.1-0.3-0.2-0.6-0.2-0.9c0-0.3,0-0.6,0.1-0.9c0.1-0.3,0.3-0.5,0.5-0.8
				c0.2-0.2,0.5-0.4,0.8-0.5c0.3-0.1,0.6-0.2,0.9-0.1c0.3,0,0.6,0.1,0.8,0.2c0.3,0.1,0.5,0.3,0.7,0.5c0,0,0.1,0.1,0.1,0.1
				c0,0,0.1,0.1,0.1,0.1l-2.7,2.7c0.2,0.2,0.4,0.3,0.6,0.4c0.2,0.1,0.4,0.1,0.6,0.1c0.2,0,0.4,0,0.6-0.1c0.2-0.1,0.4-0.2,0.5-0.3
				c0.1-0.1,0.2-0.2,0.3-0.4c0.1-0.1,0.1-0.3,0.2-0.4c0-0.1,0.1-0.3,0-0.4c0-0.1,0-0.3-0.1-0.4l0.5-0.3c0.1,0.2,0.1,0.3,0.1,0.5
				c0,0.2,0,0.4-0.1,0.6c0,0.2-0.1,0.4-0.2,0.6C51.8,161.5,51.7,161.7,51.6,161.9z M50.9,158.9c-0.2-0.2-0.4-0.3-0.6-0.3
				c-0.2-0.1-0.4-0.1-0.6-0.1c-0.2,0-0.4,0-0.6,0.1c-0.2,0.1-0.4,0.2-0.5,0.4c-0.2,0.2-0.3,0.3-0.4,0.5c-0.1,0.2-0.1,0.4-0.1,0.6
				c0,0.2,0,0.4,0.1,0.6s0.2,0.4,0.4,0.6L50.9,158.9z"/>
			<path fill="#5D5D5D" d="M54.8,158.6c-0.2,0.2-0.5,0.5-0.8,0.6c-0.3,0.2-0.6,0.2-1,0.3l-0.1-0.5c0.3,0,0.6-0.1,0.9-0.2
				c0.3-0.1,0.5-0.3,0.7-0.5c0.3-0.3,0.4-0.5,0.5-0.8c0.1-0.3,0-0.5-0.2-0.7c-0.1-0.1-0.2-0.1-0.3-0.2c-0.1,0-0.2,0-0.3,0
				c-0.1,0-0.3,0.1-0.4,0.2c-0.2,0.1-0.3,0.2-0.5,0.3c-0.2,0.1-0.4,0.3-0.6,0.3c-0.2,0.1-0.3,0.1-0.5,0.2c-0.1,0-0.3,0-0.4,0
				c-0.1,0-0.3-0.1-0.4-0.3c-0.2-0.2-0.3-0.3-0.3-0.5c-0.1-0.2-0.1-0.4,0-0.6c0-0.2,0.1-0.4,0.2-0.6c0.1-0.2,0.2-0.4,0.4-0.5
				c0.2-0.2,0.5-0.4,0.8-0.5c0.3-0.1,0.5-0.2,0.8-0.2l0,0.4c-0.2,0-0.5,0-0.7,0.2c-0.2,0.1-0.4,0.3-0.6,0.4
				c-0.1,0.1-0.2,0.2-0.3,0.3c-0.1,0.1-0.1,0.2-0.1,0.4c0,0.1,0,0.2,0,0.4c0,0.1,0.1,0.2,0.2,0.3c0.1,0.1,0.2,0.1,0.3,0.2
				c0.1,0,0.2,0,0.3,0c0.1,0,0.2-0.1,0.3-0.1c0.1-0.1,0.3-0.2,0.5-0.3c0.3-0.2,0.5-0.3,0.7-0.4c0.2-0.1,0.4-0.2,0.6-0.2
				c0.2,0,0.3,0,0.5,0c0.1,0,0.3,0.1,0.4,0.3c0.3,0.3,0.4,0.6,0.4,1C55.4,157.8,55.2,158.2,54.8,158.6z"/>
		</g>
		<g>
			<path d="M22.5,122l-7.2-7.2l3-3c0.3-0.3,0.7-0.5,1.1-0.7c0.4-0.1,0.8-0.2,1.2-0.2c0.4,0,0.8,0.1,1.2,0.3c0.4,0.2,0.7,0.4,1,0.7
				c0.3,0.3,0.5,0.6,0.7,1c0.2,0.4,0.3,0.8,0.3,1.2c0,0.4,0,0.8-0.1,1.2c-0.1,0.4-0.3,0.7-0.7,1l-2.4,2.4l2.7,2.7L22.5,122z
				 M19.9,118l2.3-2.3c0.2-0.2,0.4-0.4,0.4-0.7c0.1-0.3,0.1-0.5,0.1-0.8c0-0.3-0.1-0.5-0.2-0.8c-0.1-0.3-0.3-0.5-0.5-0.7
				c-0.2-0.2-0.5-0.4-0.8-0.5c-0.3-0.1-0.6-0.2-0.8-0.2c-0.3,0-0.6,0-0.8,0.1c-0.3,0.1-0.5,0.2-0.7,0.4l-2.3,2.2L19.9,118z"/>
			<path d="M28.8,115.7l-7.2-7.2l3-3c0.3-0.3,0.7-0.5,1.1-0.7c0.4-0.1,0.8-0.2,1.2-0.2c0.4,0,0.8,0.1,1.2,0.3c0.4,0.2,0.7,0.4,1,0.7
				c0.3,0.3,0.5,0.6,0.6,0.9c0.2,0.3,0.3,0.6,0.3,1c0.1,0.3,0,0.7,0,1c-0.1,0.3-0.2,0.6-0.4,0.9l4.6,1l-0.8,0.8l-4.4-1l-2.1,2.1
				l2.7,2.7L28.8,115.7z M26.2,111.7l2.4-2.4c0.2-0.2,0.4-0.4,0.4-0.7c0.1-0.3,0.1-0.5,0.1-0.8c0-0.3-0.1-0.5-0.2-0.8
				c-0.1-0.3-0.3-0.5-0.5-0.7c-0.2-0.2-0.5-0.4-0.7-0.5c-0.3-0.1-0.6-0.2-0.8-0.2c-0.3,0-0.6,0-0.8,0.1c-0.3,0.1-0.5,0.2-0.7,0.4
				l-2.3,2.3L26.2,111.7z"/>
			<path d="M38.5,106.1c-0.5,0.5-1.1,0.9-1.7,1.1c-0.6,0.2-1.3,0.3-1.9,0.2c-0.6,0-1.3-0.2-1.9-0.5c-0.6-0.3-1.1-0.6-1.6-1.1
				c-0.5-0.5-0.9-1-1.1-1.6c-0.3-0.6-0.4-1.2-0.5-1.9c0-0.6,0.1-1.3,0.3-1.9c0.2-0.6,0.6-1.2,1-1.6c0.5-0.5,1.1-0.9,1.7-1.1
				c0.6-0.2,1.3-0.3,1.9-0.2c0.6,0.1,1.3,0.2,1.9,0.5c0.6,0.3,1.1,0.6,1.6,1.1c0.5,0.5,0.9,1,1.1,1.6c0.3,0.6,0.4,1.2,0.5,1.9
				c0,0.6-0.1,1.3-0.3,1.9C39.3,105.1,39,105.6,38.5,106.1z M32.1,105.1c0.4,0.4,0.8,0.7,1.3,0.9c0.5,0.2,1,0.4,1.5,0.4
				c0.5,0,1,0,1.5-0.2c0.5-0.2,0.9-0.4,1.3-0.8c0.4-0.4,0.7-0.9,0.8-1.4c0.2-0.5,0.2-1,0.2-1.5c-0.1-0.5-0.2-1-0.4-1.5
				c-0.2-0.5-0.5-0.9-0.9-1.3c-0.4-0.4-0.8-0.7-1.3-0.9c-0.5-0.2-1-0.4-1.5-0.4s-1,0-1.5,0.2c-0.5,0.2-0.9,0.4-1.3,0.8
				c-0.4,0.4-0.7,0.9-0.8,1.4c-0.2,0.5-0.2,1-0.2,1.5c0.1,0.5,0.2,1,0.4,1.5C31.5,104.3,31.8,104.8,32.1,105.1z"/>
			<path d="M35.6,94.4l5.5,0.8l-0.8-5.5l0.8-0.8l0.9,6.4l6.3,0.9L47.5,97l-5.3-0.8l0.8,5.3l-0.8,0.8l-0.9-6.3l-6.4-0.9L35.6,94.4z"
				/>
			<path d="M42,88l6.3,1.5l-1.5-6.3l0.8-0.8l1.7,7.3l2.7,2.7l-0.7,0.7l-2.7-2.7l-7.3-1.7L42,88z"/>
		</g>
		<g>
			<line x1="35.8" y1="81.2" x2="44.2" y2="81.2"/>
			<rect x="35.8" y="81" fill="#5D5D5D" width="8.4" height="0.5"/>
		</g>
		<g>
			<line x1="54.2" y1="23.2" x2="4.2" y2="73.1"/>
			
				<rect x="28.9" y="12.8" transform="matrix(0.7071 0.7071 -0.7071 0.7071 42.5954 -6.5505)" fill="#5D5D5D" width="0.5" height="70.7"/>
		</g>
		<g>
			<line x1="54.2" y1="29.2" x2="37.1" y2="46.2"/>
			
				<rect x="45.4" y="25.6" transform="matrix(0.7071 0.7071 -0.7071 0.7071 40.0265 -21.2338)" fill="#5D5D5D" width="0.5" height="24.2"/>
		</g>
		<g>
			<line x1="54.2" y1="35.2" x2="43.1" y2="46.2"/>
			
				<rect x="48.4" y="32.9" transform="matrix(0.7071 0.7071 -0.7071 0.7071 43.0247 -22.4757)" fill="#5D5D5D" width="0.5" height="15.7"/>
		</g>
		<g>
			<line x1="48.3" y1="23.2" x2="17" y2="54.5"/>
			
				<rect x="32.4" y="16.7" transform="matrix(0.7071 0.7071 -0.7071 0.7071 36.9931 -11.6929)" fill="#5D5D5D" width="0.5" height="44.3"/>
		</g>
		<g>
			<line x1="42.2" y1="23" x2="14.6" y2="50.6"/>
			
				<rect x="28.1" y="17.2" transform="matrix(0.7071 0.7071 -0.7071 0.7071 34.3377 -9.3007)" fill="#5D5D5D" width="0.5" height="39.1"/>
		</g>
		<g>
			<line x1="35.5" y1="54" x2="6.9" y2="82.6"/>
			
				<rect x="20.9" y="48.1" transform="matrix(0.7071 0.7071 -0.7071 0.7071 54.494 5.0121)" fill="#5D5D5D" width="0.5" height="40.5"/>
		</g>
		<g>
			<line x1="35.4" y1="48.1" x2="0.2" y2="83.4"/>
			
				<rect x="17.5" y="40.8" transform="matrix(0.7071 0.7071 -0.7071 0.7071 51.7106 6.6752)" fill="#5D5D5D" width="0.5" height="49.8"/>
		</g>
		<g>
			<line x1="54.2" y1="40.7" x2="48.9" y2="46"/>
			
				<rect x="51.3" y="39.6" transform="matrix(0.7071 0.7071 -0.7071 0.7071 45.7745 -23.7697)" fill="#5D5D5D" width="0.5" height="7.5"/>
		</g>
		<g>
			<rect x="35.5" y="130.3" width="40.3" height="1"/>
		</g>
		<g>
			<path d="M38.6,122.6c0-0.4,0-0.7,0.1-1.1c0.1-0.4,0.2-0.7,0.4-1c0.2-0.3,0.4-0.7,0.8-1s0.7-0.6,1.3-0.9c0.3-0.1,0.6-0.3,0.9-0.4
				c0.3-0.1,0.6-0.3,0.9-0.5c0.3-0.2,0.5-0.4,0.7-0.6c0.2-0.2,0.3-0.5,0.3-0.8c0-0.2,0-0.4-0.1-0.6c-0.1-0.2-0.2-0.4-0.4-0.5
				c-0.2-0.2-0.4-0.3-0.6-0.4c-0.2-0.1-0.5-0.1-0.9-0.1c-0.3,0-0.6,0-0.9,0.1c-0.3,0.1-0.5,0.2-0.7,0.3c-0.2,0.1-0.4,0.3-0.5,0.4
				c-0.1,0.1-0.2,0.3-0.3,0.4l-0.7-0.7c0.1-0.1,0.2-0.2,0.3-0.3s0.4-0.3,0.7-0.5c0.3-0.2,0.6-0.3,1-0.4c0.4-0.1,0.8-0.2,1.3-0.2
				c0.5,0,0.9,0.1,1.2,0.2s0.7,0.3,0.9,0.5c0.3,0.2,0.4,0.5,0.6,0.8c0.1,0.3,0.2,0.6,0.2,0.9c0,0.4-0.1,0.8-0.3,1.1
				c-0.2,0.3-0.4,0.6-0.7,0.8c-0.3,0.2-0.6,0.4-0.9,0.5s-0.5,0.3-0.7,0.3c-0.5,0.2-0.8,0.4-1.1,0.6c-0.3,0.2-0.5,0.4-0.7,0.6
				c-0.2,0.2-0.3,0.4-0.4,0.7c-0.1,0.2-0.2,0.5-0.2,0.8h5.3v0.9H38.6z"/>
			<path d="M46.9,122.6v-1.5h0.9v1.5H46.9z"/>
			<path d="M57.2,119c0,0.5-0.1,1-0.3,1.4c-0.2,0.4-0.5,0.8-0.8,1.2s-0.7,0.6-1.2,0.8c-0.5,0.2-1,0.3-1.5,0.3
				c-0.6,0-1.1-0.1-1.6-0.3c-0.5-0.2-0.9-0.5-1.2-0.9c-0.3-0.4-0.6-0.9-0.8-1.4c-0.2-0.6-0.3-1.2-0.3-1.9c0-1.1,0.1-2,0.3-2.9
				c0.2-0.8,0.5-1.5,0.8-2c0.3-0.5,0.8-0.9,1.2-1.2c0.5-0.3,1-0.4,1.6-0.4c0.7,0,1.3,0.2,1.9,0.5s1,0.8,1.3,1.5l-0.7,0.6
				c-0.2-0.5-0.5-0.9-1-1.2s-1-0.5-1.5-0.5c-0.4,0-0.8,0.1-1.2,0.3c-0.4,0.2-0.7,0.5-0.9,0.9c-0.3,0.4-0.5,0.9-0.6,1.5
				c-0.1,0.6-0.2,1.2-0.2,2c0.2-0.6,0.6-1.1,1.1-1.4c0.5-0.4,1.2-0.5,1.8-0.5c0.5,0,1,0.1,1.4,0.3c0.4,0.2,0.8,0.4,1.2,0.8
				s0.6,0.7,0.8,1.2C57.1,118.1,57.2,118.5,57.2,119z M53.4,121.8c0.4,0,0.7-0.1,1.1-0.2c0.3-0.1,0.6-0.3,0.9-0.6
				c0.3-0.3,0.5-0.5,0.6-0.9c0.1-0.3,0.2-0.7,0.2-1.1c0-0.4-0.1-0.7-0.2-1.1c-0.2-0.3-0.4-0.6-0.6-0.9c-0.3-0.3-0.5-0.5-0.9-0.6
				s-0.7-0.2-1.1-0.2c-0.4,0-0.7,0.1-1.1,0.2c-0.3,0.1-0.6,0.3-0.9,0.6c-0.3,0.3-0.5,0.5-0.6,0.9s-0.2,0.7-0.2,1.1
				c0,0.4,0.1,0.7,0.2,1.1c0.2,0.3,0.4,0.6,0.6,0.9c0.3,0.3,0.6,0.5,0.9,0.6C52.7,121.8,53.1,121.8,53.4,121.8z"/>
			<path d="M66.3,118.1c0,0.7-0.1,1.3-0.3,1.8s-0.5,1-0.8,1.5c-0.3,0.4-0.7,0.7-1.2,1c-0.5,0.2-1,0.3-1.5,0.3c-0.5,0-1-0.1-1.5-0.3
				c-0.5-0.2-0.9-0.5-1.2-1c-0.3-0.4-0.6-0.9-0.8-1.5c-0.2-0.6-0.3-1.2-0.3-1.8s0.1-1.3,0.3-1.8c0.2-0.6,0.5-1,0.8-1.5
				c0.3-0.4,0.7-0.7,1.2-1c0.5-0.2,1-0.3,1.5-0.3c0.5,0,1,0.1,1.5,0.3c0.5,0.2,0.9,0.6,1.2,1c0.3,0.4,0.6,0.9,0.8,1.5
				S66.3,117.5,66.3,118.1z M65.3,118.1c0-0.5-0.1-1-0.2-1.5c-0.1-0.4-0.3-0.8-0.6-1.1c-0.2-0.3-0.5-0.6-0.9-0.7
				c-0.3-0.2-0.7-0.3-1.1-0.3c-0.4,0-0.8,0.1-1.1,0.3c-0.3,0.2-0.6,0.4-0.9,0.7c-0.2,0.3-0.4,0.7-0.6,1.1c-0.1,0.4-0.2,0.9-0.2,1.5
				s0.1,1,0.2,1.5c0.1,0.4,0.3,0.8,0.6,1.1c0.2,0.3,0.5,0.6,0.9,0.7s0.7,0.3,1.1,0.3c0.4,0,0.8-0.1,1.1-0.3c0.3-0.2,0.6-0.4,0.9-0.7
				c0.2-0.3,0.4-0.7,0.6-1.1C65.2,119.2,65.3,118.7,65.3,118.1z"/>
		</g>
	</g>
</g>
</svg>
