<?xml version="1.0" encoding="utf-8"?>
<!-- Generator: Adobe Illustrator 17.1.0, SVG Export Plug-In . SVG Version: 6.00 Build 0)  -->
<!DOCTYPE svg PUBLIC "-//W3C//DTD SVG 1.1//EN" "http://www.w3.org/Graphics/SVG/1.1/DTD/svg11.dtd">
<svg version="1.1" xmlns="http://www.w3.org/2000/svg" xmlns:xlink="http://www.w3.org/1999/xlink" x="0px" y="0px"
	 viewBox="0 0 162.1 107.9" enable-background="new 0 0 162.1 107.9" xml:space="preserve">
<g id="Layer_1" display="none">
	
		<image display="inline" overflow="visible" opacity="0.57" width="983" height="570" xlink:href="../../../../plattegrond.png"  transform="matrix(0.1961 0 0 0.1961 -226.1962 -13.6604)">
	</image>
</g>
<g id="Layer_2">
	<line stroke="#5D5D5D" stroke-width="0.5" stroke-miterlimit="10" x1="17.2" y1="22.3" x2="36.8" y2="22.3"/>
	<line stroke="#5D5D5D" stroke-width="0.5" stroke-miterlimit="10" x1="25.1" y1="39.4" x2="36.8" y2="39.4"/>
	<line stroke="#5D5D5D" stroke-width="0.5" stroke-miterlimit="10" x1="48.4" y1="50.5" x2="48.4" y2="93.3"/>
	<line stroke="#5D5D5D" stroke-width="0.5" stroke-miterlimit="10" x1="65" y1="50.5" x2="65" y2="107.9"/>
	<line stroke="#5D5D5D" stroke-width="0.5" stroke-miterlimit="10" x1="65" y1="97" x2="106.2" y2="97"/>
	<line stroke="#5D5D5D" stroke-width="0.5" stroke-miterlimit="10" x1="110.2" y1="53.9" x2="110.2" y2="88.6"/>
	<line stroke="#5D5D5D" stroke-width="0.5" stroke-miterlimit="10" x1="36.8" y1="7.4" x2="36.8" y2="39.4"/>
	<line stroke="#5D5D5D" stroke-width="0.5" stroke-miterlimit="10" x1="26.3" y1="13.7" x2="26.3" y2="22.3"/>
	<line stroke="#5D5D5D" stroke-width="0.5" stroke-miterlimit="10" x1="48.4" y1="31.4" x2="100.9" y2="31.4"/>
	<line stroke="#5D5D5D" stroke-width="0.5" stroke-miterlimit="10" x1="48.4" y1="42.2" x2="116.4" y2="42.2"/>
	<line stroke="#5D5D5D" stroke-width="0.5" stroke-miterlimit="10" x1="48.4" y1="50.5" x2="65" y2="50.5"/>
	<line stroke="#5D5D5D" stroke-width="0.5" stroke-miterlimit="10" x1="126.2" y1="53.6" x2="110.2" y2="53.6"/>
	<line stroke="#5D5D5D" stroke-width="0.5" stroke-miterlimit="10" x1="36.8" y1="57.5" x2="48.4" y2="57.5"/>
	<line stroke="#5D5D5D" stroke-width="0.5" stroke-miterlimit="10" x1="17.2" y1="22.3" x2="17.2" y2="43.1"/>
	<line stroke="#5D5D5D" stroke-width="0.5" stroke-miterlimit="10" x1="48.4" y1="8.1" x2="48.4" y2="42.2"/>
	<path d="M33.3,59.8c-0.1,0-0.3-0.2-0.3-0.5V43c0-0.3,0.1-0.5,0.3-0.5s0.3,0.2,0.3,0.5v16.2C33.6,59.5,33.4,59.8,33.3,59.8z"/>
	<path d="M34.3,46c-0.1,0-0.1,0-0.2-0.1c-0.1-0.1-0.1-0.2-0.1-0.4c0,0,0.8-1.1,2-1.1c0.9,0,1.4,0.3,1.9,0.6c0.4,0.2,0.8,0.4,1.4,0.4
		c1.1,0,1.9-1,2.3-1.9c-0.4,0.2-0.8,0.4-1.3,0.4c-1.1,0-1.7-0.6-2.2-1.1c-0.5-0.5-0.9-0.9-1.8-0.9c-1.1,0-1.8,0.9-1.8,0.9
		c-0.1,0.1-0.2,0.1-0.4,0.1s-0.1-0.2-0.1-0.4c0,0,0.8-1.1,2.2-1.1c1.1,0,1.7,0.6,2.2,1.1c0.5,0.5,0.9,0.9,1.8,0.9
		c1.1,0,1.8-0.9,1.8-0.9c0.1-0.1,0.2-0.1,0.3-0.1c0.1,0.1,0.2,0.2,0.1,0.3c0,0-0.3,0.8-0.8,1.6c-0.3,0.5-0.6,0.8-1,1.1
		c-0.5,0.3-1,0.5-1.5,0.5c-0.7,0-1.1-0.3-1.6-0.5c-0.5-0.3-0.9-0.5-1.7-0.5c-0.9,0-1.6,0.9-1.6,0.9C34.5,46,34.4,46,34.3,46L34.3,46
		z"/>
	<line fill="none" stroke="#000000" stroke-width="0.75" stroke-miterlimit="10" x1="36.8" y1="47.1" x2="36.8" y2="52.9"/>
	<line stroke="#5D5D5D" stroke-width="0.5" stroke-miterlimit="10" x1="81" y1="56.9" x2="65" y2="72.8"/>
	<line stroke="#5D5D5D" stroke-width="0.5" stroke-miterlimit="10" x1="91" y1="49.8" x2="65" y2="75.8"/>
	<line x1="81" y1="62.7" x2="65" y2="78.7"/>
	<line stroke="#5D5D5D" stroke-width="0.5" stroke-miterlimit="10" x1="91.6" y1="52.1" x2="65" y2="78.7"/>
	<line stroke="#5D5D5D" stroke-width="0.5" stroke-miterlimit="10" x1="81" y1="65.6" x2="65" y2="81.6"/>
	<line x1="81" y1="68.5" x2="65" y2="84.5"/>
	<line stroke="#5D5D5D" stroke-width="0.5" stroke-miterlimit="10" x1="81" y1="68.5" x2="65" y2="84.5"/>
	<line stroke="#5D5D5D" stroke-width="0.5" stroke-miterlimit="10" x1="83.9" y1="68.6" x2="65" y2="87.4"/>
	<line x1="81" y1="74.4" x2="65" y2="90.3"/>
	<line stroke="#5D5D5D" stroke-width="0.5" stroke-miterlimit="10" x1="105" y1="50.3" x2="65" y2="90.3"/>
	<line stroke="#5D5D5D" stroke-width="0.5" stroke-miterlimit="10" x1="101.1" y1="57.2" x2="65" y2="93.3"/>
	<line x1="81" y1="80.2" x2="65" y2="96.2"/>
	<line stroke="#5D5D5D" stroke-width="0.5" stroke-miterlimit="10" x1="48.4" y1="57.6" x2="24.1" y2="81.9"/>
	<line stroke="#5D5D5D" stroke-width="0.5" stroke-miterlimit="10" x1="48.4" y1="60.5" x2="22.5" y2="86.5"/>
	<line stroke="#5D5D5D" stroke-width="0.5" stroke-miterlimit="10" x1="48.4" y1="63.5" x2="38.6" y2="73.3"/>
	<line stroke="#5D5D5D" stroke-width="0.5" stroke-miterlimit="10" x1="48.4" y1="66.4" x2="32.5" y2="82.4"/>
	<line stroke="#5D5D5D" stroke-width="0.5" stroke-miterlimit="10" x1="48.4" y1="69.3" x2="42" y2="75.7"/>
	<line stroke="#5D5D5D" stroke-width="0.5" stroke-miterlimit="10" x1="48.4" y1="72.2" x2="32.5" y2="88.2"/>
	<line x1="48.4" y1="75.1" x2="32.5" y2="91.1"/>
	<line stroke="#5D5D5D" stroke-width="0.5" stroke-miterlimit="10" x1="48.4" y1="75.1" x2="32.5" y2="91.1"/>
	<line stroke="#5D5D5D" stroke-width="0.5" stroke-miterlimit="10" x1="48.4" y1="78" x2="40.1" y2="86.4"/>
	<line x1="48.4" y1="81" x2="32.5" y2="96.9"/>
	<line stroke="#5D5D5D" stroke-width="0.5" stroke-miterlimit="10" x1="56.8" y1="0" x2="48.7" y2="8.1"/>
	<line stroke="#5D5D5D" stroke-width="0.5" stroke-miterlimit="10" x1="54.5" y1="5.2" x2="48.7" y2="11"/>
	<line stroke="#5D5D5D" stroke-width="0.5" stroke-miterlimit="10" x1="60.6" y1="2" x2="48.7" y2="13.9"/>
	<line stroke="#5D5D5D" stroke-width="0.5" stroke-miterlimit="10" x1="58.2" y1="7.4" x2="48.7" y2="16.8"/>
	<line stroke="#5D5D5D" stroke-width="0.5" stroke-miterlimit="10" x1="56.9" y1="11.6" x2="48.7" y2="19.7"/>
	<line stroke="#5D5D5D" stroke-width="0.5" stroke-miterlimit="10" x1="64.7" y1="6.7" x2="48.7" y2="22.7"/>
	<line stroke="#5D5D5D" stroke-width="0.5" stroke-miterlimit="10" x1="62.7" y1="11.6" x2="48.7" y2="25.6"/>
	<line stroke="#5D5D5D" stroke-width="0.5" stroke-miterlimit="10" x1="60.9" y1="16.3" x2="48.7" y2="28.5"/>
	
		<text transform="matrix(0.7071 -0.7071 0.7071 0.7071 85.4999 67.108)" fill="#5D5D5D" font-family="'Raleway-Medium'" font-size="4.2">Open Area</text>
	<line stroke="#5D5D5D" stroke-width="0.25" stroke-miterlimit="10" x1="81" y1="50.8" x2="65" y2="66.8"/>
	<line stroke="#5D5D5D" stroke-width="0.5" stroke-miterlimit="10" x1="84.7" y1="50.1" x2="65" y2="69.7"/>
	<line stroke="#5D5D5D" stroke-width="0.5" stroke-miterlimit="10" x1="45.6" y1="57.6" x2="30.3" y2="72.8"/>
	<line stroke="#5D5D5D" stroke-width="0.5" stroke-miterlimit="10" x1="39.6" y1="57.6" x2="36.6" y2="60.7"/>
	<line stroke="#5D5D5D" stroke-width="0.5" stroke-miterlimit="10" x1="33.8" y1="63.5" x2="25.1" y2="72.2"/>
	<line stroke="#5D5D5D" stroke-width="0.5" stroke-miterlimit="10" x1="42.6" y1="57.5" x2="29.2" y2="71"/>
	<line fill="none" stroke="#000000" stroke-width="0.75" stroke-miterlimit="10" x1="17.2" y1="56.8" x2="17.2" y2="63.9"/>
	<line fill="none" stroke="#000000" stroke-width="0.75" stroke-miterlimit="10" x1="23.7" y1="48.4" x2="36.8" y2="48.4"/>
	<text transform="matrix(1 0 0 1 18.304 59.532)" font-family="'Raleway-Medium'" font-size="7.4339">2.60</text>
	<line fill="none" stroke="#000000" stroke-width="0.5" stroke-miterlimit="10" x1="18.3" y1="60.9" x2="33.3" y2="60.9"/>
	<line fill="none" stroke="#000000" stroke-width="0.75" stroke-miterlimit="10" x1="36.8" y1="55.5" x2="36.8" y2="63.9"/>
	<line stroke="#5D5D5D" stroke-width="0.5" stroke-miterlimit="10" x1="27.8" y1="63.5" x2="18.6" y2="72.6"/>
	<line stroke="#5D5D5D" stroke-width="0.5" stroke-miterlimit="10" x1="30.6" y1="63.5" x2="21.4" y2="72.7"/>
	<line stroke="#5D5D5D" stroke-width="0.5" stroke-miterlimit="10" x1="21.9" y1="63.5" x2="16.1" y2="69.3"/>
	<line stroke="#5D5D5D" stroke-width="0.5" stroke-miterlimit="10" x1="24.5" y1="63.8" x2="19" y2="69.3"/>
	<line x1="48.4" y1="81" x2="32.5" y2="96.9"/>
	<line stroke="#5D5D5D" stroke-width="0.5" stroke-miterlimit="10" x1="48.4" y1="81" x2="32.5" y2="96.9"/>
	<line stroke="#5D5D5D" stroke-width="0.5" stroke-miterlimit="10" x1="48.4" y1="83.9" x2="39.1" y2="93.2"/>
	<line x1="81" y1="80.2" x2="65" y2="96.2"/>
	<line stroke="#5D5D5D" stroke-width="0.5" stroke-miterlimit="10" x1="81" y1="80.2" x2="65" y2="96.2"/>
	<line stroke="#5D5D5D" stroke-width="0.5" stroke-miterlimit="10" x1="81" y1="83.1" x2="67.1" y2="97"/>
	<line stroke="#5D5D5D" stroke-width="0.5" stroke-miterlimit="10" x1="83" y1="83.9" x2="69.9" y2="97"/>
	<line stroke="#5D5D5D" stroke-width="0.5" stroke-miterlimit="10" x1="83" y1="86.8" x2="72.9" y2="96.9"/>
	<line x1="91.8" y1="81" x2="75.9" y2="96.9"/>
	<line stroke="#5D5D5D" stroke-width="0.5" stroke-miterlimit="10" x1="91.8" y1="81" x2="75.9" y2="96.9"/>
	<line stroke="#5D5D5D" stroke-width="0.5" stroke-miterlimit="10" x1="91.8" y1="83.9" x2="78.7" y2="97"/>
	<line stroke="#5D5D5D" stroke-width="0.5" stroke-miterlimit="10" x1="87.4" y1="91.1" x2="81.5" y2="97"/>
	<line stroke="#5D5D5D" stroke-width="0.5" stroke-miterlimit="10" x1="81" y1="50.9" x2="65" y2="66.9"/>
	<line stroke="#5D5D5D" stroke-width="0.5" stroke-miterlimit="10" x1="79" y1="49.8" x2="65" y2="63.8"/>
	<line stroke="#5D5D5D" stroke-width="0.5" stroke-miterlimit="10" x1="74" y1="51.9" x2="65" y2="60.9"/>
	<line stroke="#5D5D5D" stroke-width="0.5" stroke-miterlimit="10" x1="68.5" y1="51.4" x2="65" y2="54.8"/>
	<line stroke="#5D5D5D" stroke-width="0.5" stroke-miterlimit="10" x1="73.3" y1="49.5" x2="65" y2="57.8"/>
	<line stroke="#5D5D5D" stroke-width="0.5" stroke-miterlimit="10" x1="59" y1="21.3" x2="48.9" y2="31.4"/>
	<line stroke="#5D5D5D" stroke-width="0.5" stroke-miterlimit="10" x1="60.6" y1="22.4" x2="51.6" y2="31.4"/>
	<line stroke="#5D5D5D" stroke-width="0.5" stroke-miterlimit="10" x1="63.4" y1="22.4" x2="54.6" y2="31.5"/>
	<line stroke="#5D5D5D" stroke-width="0.5" stroke-miterlimit="10" x1="73.3" y1="15.4" x2="57.3" y2="31.4"/>
	<line stroke="#5D5D5D" stroke-width="0.5" stroke-miterlimit="10" x1="76.2" y1="15.4" x2="60.2" y2="31.4"/>
	<line stroke="#5D5D5D" stroke-width="0.5" stroke-miterlimit="10" x1="73.3" y1="21.3" x2="63.1" y2="31.4"/>
	<line stroke="#5D5D5D" stroke-width="0.5" stroke-miterlimit="10" x1="81.3" y1="16.3" x2="66.2" y2="31.4"/>
	<line stroke="#5D5D5D" stroke-width="0.5" stroke-miterlimit="10" x1="81.3" y1="19.2" x2="69.1" y2="31.4"/>
	<line stroke="#5D5D5D" stroke-width="0.5" stroke-miterlimit="10" x1="81.3" y1="22.1" x2="72" y2="31.4"/>
	
		<text transform="matrix(0.7071 -0.7071 0.7071 0.7071 64.2406 21.2623)" fill="#5D5D5D" font-family="'Raleway-Medium'" font-size="4.2">Canteen</text>
	
		<text transform="matrix(0.7071 -0.7071 0.7071 0.7071 17.214 86.4132)" fill="#5D5D5D" font-family="'Raleway-Medium'" font-size="4.2">Bushes</text>
	<text transform="matrix(0.7071 -0.7071 0.7071 0.7071 10.4633 59.6984)" font-family="'Raleway-Medium'" font-size="7">PROXY</text>
	<line stroke="#5D5D5D" stroke-width="0.5" stroke-miterlimit="10" x1="17.3" y1="39.4" x2="21.4" y2="39.4"/>
	<line stroke="#5D5D5D" stroke-width="0.5" stroke-miterlimit="10" x1="26.3" y1="11.2" x2="2" y2="35.5"/>
	<line stroke="#5D5D5D" stroke-width="0.5" stroke-miterlimit="10" x1="26.3" y1="14.1" x2="18" y2="22.4"/>
	<line stroke="#5D5D5D" stroke-width="0.5" stroke-miterlimit="10" x1="26.3" y1="17" x2="20.9" y2="22.4"/>
	<line stroke="#5D5D5D" stroke-width="0.5" stroke-miterlimit="10" x1="23.4" y1="11.2" x2="8.2" y2="26.4"/>
	<line stroke="#5D5D5D" stroke-width="0.5" stroke-miterlimit="10" x1="20.4" y1="11.1" x2="7" y2="24.5"/>
	<line stroke="#5D5D5D" stroke-width="0.5" stroke-miterlimit="10" x1="17.2" y1="26.2" x2="3.3" y2="40.1"/>
	<line stroke="#5D5D5D" stroke-width="0.5" stroke-miterlimit="10" x1="17.1" y1="23.3" x2="0" y2="40.5"/>
	<line stroke="#5D5D5D" stroke-width="0.5" stroke-miterlimit="10" x1="26.3" y1="19.7" x2="23.7" y2="22.3"/>
	<line fill="none" stroke="#000000" stroke-width="0.75" stroke-miterlimit="10" x1="17.2" y1="63.5" x2="36.8" y2="63.5"/>
	<line stroke="#5D5D5D" stroke-width="0.5" stroke-miterlimit="10" x1="126.2" y1="53.6" x2="126.2" y2="70.3"/>
	<line stroke="#5D5D5D" stroke-width="0.5" stroke-miterlimit="10" x1="142.2" y1="52.6" x2="126.2" y2="68.6"/>
	<line stroke="#5D5D5D" stroke-width="0.5" stroke-miterlimit="10" x1="142" y1="55.7" x2="129.8" y2="67.9"/>
	<line stroke="#5D5D5D" stroke-width="0.5" stroke-miterlimit="10" x1="149.1" y1="51.6" x2="128.3" y2="72.3"/>
	<line stroke="#5D5D5D" stroke-width="0.5" stroke-miterlimit="10" x1="142.2" y1="61.4" x2="131.3" y2="72.3"/>
	<line stroke="#5D5D5D" stroke-width="0.5" stroke-miterlimit="10" x1="153.2" y1="53.3" x2="132.1" y2="74.3"/>
	<line stroke="#5D5D5D" stroke-width="0.5" stroke-miterlimit="10" x1="136.1" y1="55.5" x2="126.2" y2="65.5"/>
	<line stroke="#5D5D5D" stroke-width="0.5" stroke-miterlimit="10" x1="135.7" y1="53.2" x2="126.2" y2="62.7"/>
	<line stroke="#5D5D5D" stroke-width="0.5" stroke-miterlimit="10" x1="140.2" y1="45.6" x2="126.2" y2="59.6"/>
	<line stroke="#5D5D5D" stroke-width="0.5" stroke-miterlimit="10" x1="135.1" y1="47.7" x2="126.2" y2="56.6"/>
	<line stroke="#5D5D5D" stroke-width="0.5" stroke-miterlimit="10" x1="130.5" y1="49.2" x2="126.2" y2="53.5"/>
	<line stroke="#5D5D5D" stroke-width="0.5" stroke-miterlimit="10" x1="133.2" y1="6.7" x2="133.2" y2="38.6"/>
</g>
</svg>
