<?xml version="1.0" encoding="utf-8"?>
<!-- Generator: Adobe Illustrator 17.1.0, SVG Export Plug-In . SVG Version: 6.00 Build 0)  -->
<!DOCTYPE svg PUBLIC "-//W3C//DTD SVG 1.1//EN" "http://www.w3.org/Graphics/SVG/1.1/DTD/svg11.dtd">
<svg version="1.1" id="Layer_1" xmlns="http://www.w3.org/2000/svg" xmlns:xlink="http://www.w3.org/1999/xlink" x="0px" y="0px"
	 viewBox="0 0 785.7 407.3" enable-background="new 0 0 785.7 407.3" xml:space="preserve">
<g>
	<g>
		<path fill="#010101" d="M736,283H613.2c-26.5,0-48.1-21.6-48.1-48.1s21.6-48.1,48.1-48.1H736c26.5,0,48.1,21.6,48.1,48.1
			S762.6,283,736,283z M613.2,190.8c-24.3,0-44,19.7-44,44c0,24.3,19.7,44,44,44H736c24.3,0,44-19.7,44-44c0-24.3-19.7-44-44-44
			H613.2z"/>
	</g>
	<g>
		<path fill="#010101" d="M431.1,343.1H308.2c-26.5,0-48.1-21.6-48.1-48.1c0-26.5,21.6-48.1,48.1-48.1h122.9
			c26.5,0,48.1,21.6,48.1,48.1C479.2,321.5,457.6,343.1,431.1,343.1z M308.2,250.9c-24.3,0-44,19.7-44,44c0,24.3,19.7,44,44,44
			h122.9c24.3,0,44-19.7,44-44c0-24.3-19.7-44-44-44H308.2z"/>
	</g>
	<g>
		<path fill="#58595B" d="M583,100.3H460.1c-26.5,0-48.1-21.6-48.1-48.1S433.6,4,460.1,4H583c26.5,0,48.1,21.6,48.1,48.1
			S609.5,100.3,583,100.3z M460.1,8.1c-24.3,0-44,19.7-44,44s19.7,44,44,44H583c24.3,0,44-19.7,44-44s-19.7-44-44-44H460.1z"/>
	</g>
	<g>
		<path fill="#58595B" d="M172,100.3H49.1C22.6,100.3,1,78.7,1,52.2S22.6,4,49.1,4H172c26.5,0,48.1,21.6,48.1,48.1
			S198.5,100.3,172,100.3z M49.1,8.1c-24.3,0-44,19.7-44,44s19.7,44,44,44H172c24.3,0,44-19.7,44-44s-19.7-44-44-44H49.1z"/>
	</g>
	<g>
		<path fill="#010101" d="M736,403.2H613.2c-26.5,0-48.1-21.6-48.1-48.1s21.6-48.1,48.1-48.1H736c26.5,0,48.1,21.6,48.1,48.1
			S762.6,403.2,736,403.2z M613.2,311.1c-24.3,0-44,19.7-44,44c0,24.3,19.7,44,44,44H736c24.3,0,44-19.7,44-44c0-24.3-19.7-44-44-44
			H613.2z"/>
	</g>
	<g>
		<path fill="#010101" d="M674.6,140.7h-305c-0.8,0-1.5-0.7-1.5-1.5s0.7-1.5,1.5-1.5h305c0.8,0,1.5,0.7,1.5,1.5
			S675.5,140.7,674.6,140.7z"/>
	</g>
	<g>
		<path fill="#010101" d="M521.6,105.6c-0.8,0-1.5-0.7-1.5-1.5l-0.1-5.8c0-0.8,0.7-1.5,1.5-1.6c0,0,0,0,0,0c0.8,0,1.5,0.7,1.5,1.5
			l0.1,5.8C523.2,104.9,522.5,105.6,521.6,105.6C521.6,105.6,521.6,105.6,521.6,105.6z"/>
	</g>
	<g>
		<path fill="#010101" d="M534.5,140.7c-0.6,0-1.2-0.4-1.4-1l-12.9-35.1c-0.3-0.8,0.1-1.7,0.9-2c0.8-0.3,1.7,0.1,2,0.9l12.9,35.1
			c0.3,0.8-0.1,1.7-0.9,2C534.8,140.7,534.7,140.7,534.5,140.7z"/>
	</g>
	<g>
		<path fill="#010101" d="M508.6,140.4c-0.2,0-0.4,0-0.5-0.1c-0.8-0.3-1.2-1.2-0.9-2l12.9-34.8c0.3-0.8,1.2-1.2,2-0.9
			c0.8,0.3,1.2,1.2,0.9,2l-12.9,34.8C509.8,140.1,509.3,140.4,508.6,140.4z"/>
	</g>
	<g>
		<path fill="#010101" d="M532,249.3c-0.6,0-1.2-0.4-1.4-1c-0.3-0.8,0.1-1.7,0.9-2l35.1-12.9c0.8-0.3,1.7,0.1,2,0.9
			c0.3,0.8-0.1,1.7-0.9,2l-35.1,12.9C532.4,249.3,532.2,249.3,532,249.3z"/>
	</g>
	<g>
		<path fill="#010101" d="M567.1,236.3c-0.2,0-0.4,0-0.5-0.1l-34.8-12.9c-0.8-0.3-1.2-1.2-0.9-2c0.3-0.8,1.2-1.2,2-0.9l34.8,12.9
			c0.8,0.3,1.2,1.2,0.9,2C568.3,236,567.7,236.3,567.1,236.3z"/>
	</g>
	<g>
		<path fill="#010101" d="M531.7,369.6c-0.6,0-1.2-0.4-1.4-1c-0.3-0.8,0.1-1.7,0.9-2l35.1-12.9c0.8-0.3,1.7,0.1,2,0.9
			c0.3,0.8-0.1,1.7-0.9,2l-35.1,12.9C532.1,369.6,531.9,369.6,531.7,369.6z"/>
	</g>
	<g>
		<path fill="#010101" d="M566.8,356.6c-0.2,0-0.4,0-0.5-0.1l-34.8-12.9c-0.8-0.3-1.2-1.2-0.9-2c0.3-0.8,1.2-1.2,2-0.9l34.8,12.9
			c0.8,0.3,1.2,1.2,0.9,2C568,356.3,567.4,356.6,566.8,356.6z"/>
	</g>
	<g>
		<path fill="#010101" d="M369.6,250.4c-0.8,0-1.5-0.7-1.5-1.5V139.1c0-0.8,0.7-1.5,1.5-1.5c0.8,0,1.5,0.7,1.5,1.5v109.7
			C371.2,249.7,370.5,250.4,369.6,250.4z"/>
	</g>
	<g>
		<path fill="#010101" d="M674.6,190.3c-0.8,0-1.5-0.7-1.5-1.5v-49.6c0-0.8,0.7-1.5,1.5-1.5s1.5,0.7,1.5,1.5v49.6
			C676.2,189.6,675.5,190.3,674.6,190.3z"/>
	</g>
	<g>
		<path fill="#010101" d="M674.6,310.6c-0.8,0-1.5-0.7-1.5-1.5v-28.1c0-0.8,0.7-1.5,1.5-1.5s1.5,0.7,1.5,1.5V309
			C676.2,309.9,675.5,310.6,674.6,310.6z"/>
	</g>
	<g>
		<path fill="#010101" d="M500.3,356.6c-0.8,0-1.5-0.7-1.5-1.5V234.8c0-0.8,0.7-1.5,1.5-1.5s1.5,0.7,1.5,1.5v120.3
			C501.8,355.9,501.1,356.6,500.3,356.6z"/>
	</g>
	<g>
		<path fill="#010101" d="M500.3,296.5h-23.2c-0.8,0-1.5-0.7-1.5-1.5c0-0.8,0.7-1.5,1.5-1.5h23.2c0.8,0,1.5,0.7,1.5,1.5
			C501.8,295.8,501.1,296.5,500.3,296.5z"/>
	</g>
	<g>
		<path fill="#010101" d="M543,236.4h-42.7c-0.8,0-1.5-0.7-1.5-1.5s0.7-1.5,1.5-1.5H543c0.8,0,1.5,0.7,1.5,1.5
			S543.9,236.4,543,236.4z"/>
	</g>
	<g>
		<path fill="#010101" d="M543,356.7h-42.7c-0.8,0-1.5-0.7-1.5-1.5s0.7-1.5,1.5-1.5H543c0.8,0,1.5,0.7,1.5,1.5
			S543.9,356.7,543,356.7z"/>
	</g>
	<g>
		<path fill="#58595B" d="M311.8,67.1c-0.6,0-1.2-0.4-1.4-1c-0.3-0.8,0.1-1.7,0.9-2l35.1-12.9c0.8-0.3,1.7,0.1,2,0.9
			c0.3,0.8-0.1,1.7-0.9,2L312.4,67C312.2,67,312,67.1,311.8,67.1z"/>
	</g>
	<g>
		<path fill="#58595B" d="M346.9,54.1c-0.2,0-0.4,0-0.5-0.1l-34.8-12.9c-0.8-0.3-1.2-1.2-0.9-2c0.3-0.8,1.2-1.2,2-0.9l34.8,12.9
			c0.8,0.3,1.2,1.2,0.9,2C348.1,53.7,347.5,54.1,346.9,54.1z"/>
	</g>
	<g opacity="0.4">
		<g>
			<g>
				<g>
					<rect x="218.1" y="36.8" fill="none" width="29.1" height="30.8"/>
				</g>
			</g>
			<g>
				<rect x="239.6" y="51.1" fill-rule="evenodd" clip-rule="evenodd" width="5.4" height="3.1"/>
			</g>
			<g>
				<rect x="229.9" y="51.1" fill-rule="evenodd" clip-rule="evenodd" width="5.4" height="3.1"/>
			</g>
			<g>
				<rect x="220.3" y="51.1" fill-rule="evenodd" clip-rule="evenodd" width="5.4" height="3.1"/>
			</g>
		</g>
		<g>
			<g>
				<g>
					<rect x="247.2" y="36.8" fill="none" width="29.1" height="30.8"/>
				</g>
			</g>
			<g>
				<rect x="268.7" y="51.1" fill-rule="evenodd" clip-rule="evenodd" width="5.4" height="3.1"/>
			</g>
			<g>
				<rect x="259" y="51.1" fill-rule="evenodd" clip-rule="evenodd" width="5.4" height="3.1"/>
			</g>
			<g>
				<rect x="249.4" y="51.1" fill-rule="evenodd" clip-rule="evenodd" width="5.4" height="3.1"/>
			</g>
		</g>
		<g>
			<g>
				<g>
					<rect x="276.3" y="36.8" fill="none" width="29.1" height="30.8"/>
				</g>
			</g>
			<g>
				<rect x="297.8" y="51.1" fill-rule="evenodd" clip-rule="evenodd" width="5.4" height="3.1"/>
			</g>
			<g>
				<rect x="288.1" y="51.1" fill-rule="evenodd" clip-rule="evenodd" width="5.4" height="3.1"/>
			</g>
			<g>
				<rect x="278.5" y="51.1" fill-rule="evenodd" clip-rule="evenodd" width="5.4" height="3.1"/>
			</g>
		</g>
		<g>
			<g>
				<g>
					<rect x="305.4" y="36.8" fill="none" width="29.1" height="30.8"/>
				</g>
			</g>
			<g>
				<rect x="326.9" y="51.1" fill-rule="evenodd" clip-rule="evenodd" width="5.4" height="3.1"/>
			</g>
			<g>
				<rect x="317.3" y="51.1" fill-rule="evenodd" clip-rule="evenodd" width="5.4" height="3.1"/>
			</g>
			<g>
				<rect x="307.6" y="51.1" fill-rule="evenodd" clip-rule="evenodd" width="5.4" height="3.1"/>
			</g>
		</g>
	</g>
	<g>
		<path fill="#58595B" d="M414.8,53.7h-23.6c-0.4,0-0.7-0.7-0.7-1.5s0.3-1.5,0.7-1.5h23.6c0.4,0,0.7,0.7,0.7,1.5
			S415.3,53.7,414.8,53.7z"/>
	</g>
	<g>
		<path fill="#58595B" d="M369.6,76.1c-13.2,0-24-10.7-24-24s10.8-24,24-24s24,10.7,24,24S382.8,76.1,369.6,76.1z M369.6,31.3
			c-11.5,0-20.9,9.4-20.9,20.9S358.1,73,369.6,73c11.5,0,20.9-9.4,20.9-20.9S381.1,31.3,369.6,31.3z"/>
	</g>
	<g>
		<path fill="#010101" d="M306.5,309v-29.1h12.1c1.3,0,2.5,0.3,3.5,0.8c1.1,0.5,2,1.2,2.8,2.1c0.8,0.9,1.4,1.9,1.8,3
			c0.4,1.1,0.7,2.2,0.7,3.4c0,1.2-0.2,2.4-0.6,3.5c-0.4,1.1-1,2.1-1.7,3c-0.7,0.9-1.7,1.6-2.7,2.1c-1.1,0.5-2.2,0.8-3.5,0.8h-8.7
			V309H306.5z M310.2,295.3h8.5c0.8,0,1.5-0.2,2.1-0.5c0.6-0.3,1.1-0.8,1.6-1.3s0.8-1.2,1-1.9c0.2-0.7,0.4-1.5,0.4-2.3
			c0-0.8-0.1-1.6-0.4-2.4c-0.3-0.7-0.7-1.4-1.1-1.9c-0.5-0.5-1-1-1.7-1.3c-0.6-0.3-1.3-0.4-2-0.4h-8.2V295.3z"/>
		<path fill="#010101" d="M332,309v-29.1h12.5c1.3,0,2.5,0.3,3.5,0.8c1.1,0.5,2,1.2,2.8,2.1c0.8,0.9,1.4,1.9,1.8,3
			c0.4,1.1,0.7,2.2,0.7,3.4c0,1-0.1,2-0.4,2.9c-0.3,0.9-0.7,1.8-1.2,2.6s-1.2,1.4-1.9,2c-0.8,0.5-1.6,0.9-2.5,1.2l7.1,11.2h-4.2
			l-6.6-10.5h-7.7V309H332z M335.7,295.3h8.8c0.8,0,1.5-0.2,2.1-0.5c0.6-0.3,1.1-0.8,1.6-1.3c0.4-0.6,0.8-1.2,1-2
			c0.2-0.7,0.4-1.5,0.4-2.3c0-0.8-0.1-1.6-0.4-2.3c-0.3-0.7-0.7-1.4-1.1-1.9c-0.5-0.6-1-1-1.7-1.3c-0.6-0.3-1.3-0.5-2-0.5h-8.6
			V295.3z"/>
		<path fill="#010101" d="M370.8,309.3c-2.1,0-3.9-0.4-5.6-1.3c-1.7-0.8-3.1-1.9-4.3-3.3c-1.2-1.4-2.1-3-2.8-4.7
			c-0.7-1.8-1-3.6-1-5.5c0-1.9,0.3-3.8,1-5.6s1.7-3.3,2.9-4.7c1.2-1.4,2.7-2.5,4.4-3.3c1.7-0.8,3.5-1.2,5.5-1.2
			c2.1,0,3.9,0.4,5.6,1.3c1.7,0.9,3.1,2,4.3,3.4c1.2,1.4,2.1,3,2.8,4.7c0.7,1.8,1,3.6,1,5.4c0,1.9-0.3,3.8-1,5.6
			c-0.7,1.8-1.7,3.3-2.9,4.7s-2.7,2.4-4.3,3.2S372.8,309.3,370.8,309.3z M360.8,294.5c0,1.5,0.2,2.9,0.7,4.3c0.5,1.4,1.2,2.6,2,3.7
			c0.9,1.1,1.9,1.9,3.2,2.5c1.2,0.6,2.6,0.9,4.1,0.9c1.6,0,3-0.3,4.2-1c1.2-0.7,2.3-1.5,3.1-2.6c0.9-1.1,1.5-2.3,2-3.7
			c0.5-1.4,0.7-2.7,0.7-4.1c0-1.5-0.2-2.9-0.7-4.3c-0.5-1.4-1.2-2.6-2.1-3.7s-1.9-1.9-3.2-2.5c-1.2-0.6-2.6-0.9-4-0.9
			c-1.6,0-3,0.3-4.2,1c-1.2,0.7-2.3,1.5-3.1,2.6c-0.9,1.1-1.5,2.3-2,3.7C361.1,291.7,360.8,293.1,360.8,294.5z"/>
		<path fill="#010101" d="M389,279.9l8.9,12.1l8.9-12.1h4.1l-11,14.8l10.6,14.4h-4.1l-8.5-11.7l-8.5,11.7h-4.1l10.6-14.4l-11-14.8
			H389z"/>
		<path fill="#010101" d="M415.5,279.9l8.8,15.2l8.9-15.2h4l-11.1,18.5V309h-3.7v-10.7l-11-18.4H415.5z"/>
	</g>
	<g>
		<path fill="#58595B" d="M58.1,44.3c-0.3-0.3-0.6-0.6-1.1-0.9c-0.4-0.3-0.9-0.5-1.5-0.8c-0.5-0.2-1.1-0.4-1.8-0.6
			c-0.6-0.1-1.3-0.2-2-0.2c-1.8,0-3.1,0.3-4,1c-0.8,0.7-1.3,1.6-1.3,2.8c0,0.6,0.1,1.2,0.4,1.6c0.2,0.4,0.6,0.8,1.1,1.1
			c0.5,0.3,1.2,0.6,1.9,0.8c0.8,0.2,1.7,0.4,2.7,0.7c1.2,0.3,2.3,0.6,3.3,0.9c1,0.3,1.8,0.8,2.5,1.3s1.2,1.1,1.6,1.8
			c0.4,0.7,0.5,1.6,0.5,2.7c0,1.1-0.2,2.1-0.7,2.9c-0.4,0.8-1,1.5-1.8,2c-0.8,0.5-1.6,0.9-2.7,1.2c-1,0.3-2.1,0.4-3.3,0.4
			c-1.8,0-3.5-0.3-5.1-0.8c-1.6-0.6-3.1-1.4-4.4-2.4l1.4-2.5c0.3,0.4,0.8,0.7,1.4,1.1c0.6,0.4,1.2,0.7,1.9,1
			c0.7,0.3,1.5,0.5,2.3,0.7c0.8,0.2,1.7,0.3,2.6,0.3c1.7,0,3-0.3,3.9-0.9c0.9-0.6,1.4-1.5,1.4-2.7c0-0.7-0.1-1.2-0.4-1.7
			c-0.3-0.4-0.7-0.8-1.3-1.2s-1.3-0.6-2.1-0.9c-0.8-0.3-1.8-0.5-2.9-0.8c-1.2-0.3-2.2-0.6-3.1-0.9c-0.9-0.3-1.6-0.7-2.2-1.2
			c-0.6-0.5-1.1-1-1.4-1.7c-0.3-0.7-0.5-1.4-0.5-2.4c0-1.1,0.2-2.1,0.6-3c0.4-0.9,1-1.6,1.7-2.2c0.7-0.6,1.6-1,2.7-1.3
			c1-0.3,2.1-0.4,3.3-0.4c1.6,0,3,0.2,4.3,0.7c1.3,0.5,2.4,1.1,3.4,1.9L58.1,44.3z"/>
		<path fill="#58595B" d="M72.4,61.8c-0.2,0.1-0.4,0.2-0.7,0.3c-0.3,0.1-0.6,0.2-1,0.4c-0.4,0.1-0.8,0.2-1.2,0.3
			c-0.4,0.1-0.9,0.1-1.3,0.1c-1,0-2-0.3-2.7-0.9c-0.8-0.6-1.1-1.5-1.1-2.7V47.8h-2.3v-2.3h2.3v-5.7h2.9v5.7h3.8v2.3h-3.8v10.6
			c0,0.6,0.3,1.1,0.6,1.4c0.4,0.3,0.8,0.4,1.3,0.4c0.6,0,1.1-0.1,1.6-0.3c0.5-0.2,0.8-0.3,1-0.4L72.4,61.8z"/>
		<path fill="#58595B" d="M80.4,63c-1.8,0-3.2-0.6-4.1-1.8c-0.9-1.2-1.4-3-1.4-5.4V45.6h2.9v9.7c0,3.5,1.2,5.3,3.6,5.3
			c1.2,0,2.3-0.4,3.3-1.1c1-0.8,1.8-1.8,2.3-3.1V45.6H90v13.6c0,0.7,0.3,1,0.9,1v2.5c-0.3,0-0.6,0.1-0.8,0.1c-0.2,0-0.4,0-0.5,0
			c-0.6,0-1-0.2-1.4-0.5c-0.4-0.3-0.6-0.8-0.6-1.3l-0.1-2c-0.8,1.3-1.8,2.3-3,3C83.3,62.7,81.9,63,80.4,63z"/>
		<path fill="#58595B" d="M101.9,63c-1.2,0-2.3-0.2-3.3-0.7c-1-0.5-1.9-1.1-2.6-1.9c-0.7-0.8-1.3-1.8-1.7-2.8
			c-0.4-1.1-0.6-2.2-0.6-3.4c0-1.2,0.2-2.3,0.6-3.4c0.4-1.1,0.9-2,1.6-2.8c0.7-0.8,1.5-1.5,2.5-1.9c1-0.5,2-0.7,3.1-0.7
			c1.4,0,2.6,0.4,3.7,1.1c1.1,0.7,1.9,1.6,2.6,2.6V38.7h2.9v20.4c0,0.7,0.3,1,0.9,1v2.5c-0.3,0-0.6,0.1-0.7,0.1c-0.2,0-0.4,0-0.5,0
			c-0.6,0-1.1-0.2-1.5-0.6c-0.4-0.4-0.6-0.8-0.6-1.3v-1.4c-0.7,1.1-1.6,2-2.7,2.6C104.3,62.7,103.2,63,101.9,63z M102.6,60.5
			c0.5,0,1.1-0.1,1.6-0.3c0.6-0.2,1.1-0.5,1.6-0.8c0.5-0.4,0.9-0.8,1.3-1.2c0.4-0.5,0.6-1,0.7-1.5v-4.9c-0.2-0.5-0.5-1.1-0.9-1.6
			c-0.4-0.5-0.8-0.9-1.3-1.3c-0.5-0.4-1-0.6-1.6-0.9c-0.6-0.2-1.1-0.3-1.7-0.3c-0.9,0-1.6,0.2-2.3,0.5c-0.7,0.4-1.3,0.8-1.8,1.4
			c-0.5,0.6-0.9,1.3-1.1,2.1c-0.3,0.8-0.4,1.6-0.4,2.4c0,0.9,0.2,1.7,0.5,2.4c0.3,0.8,0.7,1.5,1.2,2c0.5,0.6,1.1,1,1.9,1.4
			C101,60.4,101.8,60.5,102.6,60.5z"/>
		<path fill="#58595B" d="M123.1,63c-1.3,0-2.5-0.2-3.5-0.7c-1.1-0.5-2-1.1-2.8-1.9c-0.8-0.8-1.4-1.8-1.8-2.8s-0.6-2.2-0.6-3.4
			c0-1.2,0.2-2.3,0.6-3.4s1-2,1.8-2.8c0.8-0.8,1.7-1.5,2.8-1.9c1.1-0.5,2.3-0.7,3.5-0.7c1.3,0,2.5,0.2,3.5,0.7
			c1.1,0.5,2,1.1,2.7,1.9c0.7,0.8,1.3,1.7,1.7,2.8s0.6,2.2,0.6,3.3c0,0.2,0,0.5,0,0.7c0,0.2,0,0.4,0,0.5h-14.2
			c0.1,0.9,0.3,1.6,0.6,2.3c0.3,0.7,0.8,1.3,1.3,1.8c0.5,0.5,1.1,0.9,1.8,1.2c0.7,0.3,1.4,0.4,2.1,0.4c0.5,0,1-0.1,1.5-0.2
			s1-0.3,1.4-0.6c0.4-0.2,0.8-0.5,1.2-0.9c0.3-0.4,0.6-0.7,0.8-1.2l2.5,0.7c-0.3,0.6-0.7,1.2-1.2,1.7c-0.5,0.5-1.1,1-1.7,1.4
			c-0.6,0.4-1.4,0.7-2.1,0.9C124.8,62.9,123.9,63,123.1,63z M129,53c-0.1-0.8-0.3-1.6-0.6-2.2c-0.3-0.7-0.8-1.3-1.3-1.8
			c-0.5-0.5-1.1-0.9-1.8-1.1c-0.7-0.3-1.4-0.4-2.2-0.4c-0.8,0-1.5,0.1-2.2,0.4c-0.7,0.3-1.3,0.7-1.8,1.1c-0.5,0.5-0.9,1.1-1.2,1.8
			c-0.3,0.7-0.5,1.4-0.6,2.2H129z"/>
		<path fill="#58595B" d="M149.8,62.7h-2.9v-9.6c0-1.8-0.3-3.2-0.8-4c-0.6-0.8-1.4-1.2-2.5-1.2c-0.6,0-1.2,0.1-1.8,0.3
			c-0.6,0.2-1.1,0.5-1.7,0.9c-0.5,0.4-1,0.9-1.4,1.4c-0.4,0.5-0.7,1.1-0.9,1.8v10.3h-2.9V45.6h2.6v3.7c0.7-1.2,1.7-2.2,2.9-2.9
			c1.3-0.7,2.7-1.1,4.2-1.1c1,0,1.8,0.2,2.5,0.5c0.7,0.4,1.2,0.9,1.6,1.5c0.4,0.6,0.7,1.4,0.8,2.3s0.2,1.8,0.2,2.9V62.7z"/>
		<path fill="#58595B" d="M163,61.8c-0.2,0.1-0.4,0.2-0.7,0.3c-0.3,0.1-0.6,0.2-1,0.4c-0.4,0.1-0.8,0.2-1.2,0.3
			c-0.4,0.1-0.9,0.1-1.3,0.1c-1,0-2-0.3-2.7-0.9c-0.8-0.6-1.1-1.5-1.1-2.7V47.8h-2.3v-2.3h2.3v-5.7h2.9v5.7h3.8v2.3h-3.8v10.6
			c0,0.6,0.3,1.1,0.6,1.4c0.4,0.3,0.8,0.4,1.3,0.4c0.6,0,1.1-0.1,1.6-0.3c0.5-0.2,0.8-0.3,1-0.4L163,61.8z"/>
		<path fill="#58595B" d="M171.7,63c-1.4,0-2.7-0.2-4.1-0.6c-1.3-0.4-2.5-1-3.4-1.9l1.2-1.9c1,0.8,2,1.3,3,1.7
			c1,0.4,2.1,0.6,3.2,0.6c1.2,0,2.2-0.2,3-0.7c0.7-0.5,1.1-1.2,1.1-2.1c0-0.4-0.1-0.8-0.3-1.1c-0.2-0.3-0.5-0.6-0.9-0.8
			c-0.4-0.2-0.9-0.4-1.5-0.6c-0.6-0.2-1.3-0.4-2.1-0.6c-1-0.3-1.9-0.5-2.7-0.8c-0.7-0.2-1.4-0.5-1.8-0.9c-0.5-0.3-0.8-0.7-1-1.2
			c-0.2-0.5-0.3-1-0.3-1.7c0-0.9,0.2-1.6,0.5-2.3c0.3-0.7,0.8-1.2,1.4-1.7c0.6-0.4,1.3-0.8,2.1-1c0.8-0.2,1.7-0.3,2.6-0.3
			c1.3,0,2.5,0.2,3.6,0.6c1.1,0.4,2.1,1,2.8,1.6l-1.3,1.7c-0.7-0.6-1.5-1.1-2.4-1.4c-0.9-0.3-1.8-0.5-2.8-0.5c-1,0-1.9,0.2-2.7,0.7
			c-0.7,0.4-1.1,1.2-1.1,2.1c0,0.4,0.1,0.7,0.2,1c0.1,0.3,0.4,0.5,0.7,0.7c0.3,0.2,0.7,0.4,1.3,0.5c0.5,0.2,1.1,0.3,1.9,0.5
			c1.1,0.3,2.1,0.5,3,0.8c0.8,0.3,1.5,0.6,2.1,1c0.6,0.4,1,0.8,1.2,1.3c0.3,0.5,0.4,1.1,0.4,1.8c0,1.6-0.6,2.9-1.8,3.8
			C175.4,62.6,173.7,63,171.7,63z"/>
	</g>
	<g>
		<path fill="#58595B" d="M473.3,62.7V39.4h15.4V42h-12.4v7.8h10.5v2.5h-10.5v10.4H473.3z"/>
		<path fill="#58595B" d="M498.4,63c-1.3,0-2.5-0.2-3.5-0.7c-1.1-0.5-2-1.1-2.7-1.9c-0.8-0.8-1.3-1.8-1.8-2.8
			c-0.4-1.1-0.6-2.2-0.6-3.4c0-1.2,0.2-2.3,0.6-3.4c0.4-1.1,1-2,1.8-2.8c0.8-0.8,1.7-1.5,2.7-1.9c1.1-0.5,2.2-0.7,3.5-0.7
			c1.3,0,2.4,0.2,3.5,0.7c1.1,0.5,2,1.1,2.7,1.9c0.8,0.8,1.3,1.8,1.8,2.8c0.4,1.1,0.6,2.2,0.6,3.4c0,1.2-0.2,2.3-0.6,3.4
			c-0.4,1.1-1,2-1.8,2.8c-0.8,0.8-1.7,1.5-2.7,1.9C500.8,62.8,499.7,63,498.4,63z M492.7,54.2c0,0.9,0.1,1.7,0.4,2.5s0.7,1.4,1.2,2
			c0.5,0.6,1.1,1,1.8,1.3c0.7,0.3,1.4,0.5,2.2,0.5c0.8,0,1.5-0.2,2.2-0.5c0.7-0.3,1.3-0.8,1.8-1.4c0.5-0.6,0.9-1.3,1.2-2
			c0.3-0.8,0.4-1.6,0.4-2.5c0-0.9-0.1-1.7-0.4-2.5c-0.3-0.8-0.7-1.5-1.2-2c-0.5-0.6-1.1-1-1.8-1.4c-0.7-0.3-1.4-0.5-2.2-0.5
			c-0.8,0-1.5,0.2-2.2,0.5c-0.7,0.3-1.3,0.8-1.8,1.4c-0.5,0.6-0.9,1.3-1.2,2C492.8,52.5,492.7,53.3,492.7,54.2z"/>
		<path fill="#58595B" d="M525.4,62.7h-2.9v-9.6c0-1.8-0.3-3.2-0.8-4s-1.4-1.2-2.5-1.2c-0.6,0-1.2,0.1-1.8,0.3
			c-0.6,0.2-1.1,0.5-1.7,0.9c-0.5,0.4-1,0.9-1.4,1.4c-0.4,0.5-0.7,1.1-0.9,1.8v10.3h-2.9V45.6h2.6v3.7c0.7-1.2,1.7-2.2,2.9-2.9
			c1.3-0.7,2.7-1.1,4.2-1.1c1,0,1.8,0.2,2.5,0.5c0.7,0.4,1.2,0.9,1.6,1.5c0.4,0.6,0.7,1.4,0.8,2.3c0.2,0.9,0.2,1.8,0.2,2.9V62.7z"/>
		<path fill="#58595B" d="M538.6,61.8c-0.2,0.1-0.4,0.2-0.7,0.3c-0.3,0.1-0.6,0.2-1,0.4c-0.4,0.1-0.8,0.2-1.2,0.3
			c-0.4,0.1-0.9,0.1-1.3,0.1c-1,0-2-0.3-2.7-0.9c-0.8-0.6-1.1-1.5-1.1-2.7V47.8h-2.3v-2.3h2.3v-5.7h2.9v5.7h3.8v2.3h-3.8v10.6
			c0,0.6,0.3,1.1,0.6,1.4c0.4,0.3,0.8,0.4,1.3,0.4c0.6,0,1.1-0.1,1.6-0.3c0.5-0.2,0.8-0.3,1-0.4L538.6,61.8z"/>
		<path fill="#58595B" d="M542.1,67.4c0.3,0,0.6,0.1,0.9,0.1c0.3,0,0.5,0,0.7,0c0.3,0,0.5-0.1,0.7-0.2s0.4-0.4,0.6-0.7
			c0.2-0.4,0.4-0.8,0.7-1.5c0.3-0.6,0.6-1.4,1-2.4l-7.3-17.1h3l5.8,14.5l5.3-14.5h2.8l-8.3,21.6c-0.3,0.8-0.8,1.4-1.5,2
			c-0.7,0.6-1.7,0.9-2.9,0.9c-0.2,0-0.4,0-0.6,0c-0.2,0-0.5-0.1-0.8-0.1V67.4z"/>
		<path fill="#58595B" d="M564.7,63c-1.4,0-2.7-0.2-4.1-0.6c-1.3-0.4-2.5-1-3.4-1.9l1.2-1.9c1,0.8,2,1.3,3,1.7
			c1,0.4,2.1,0.6,3.2,0.6c1.2,0,2.2-0.2,3-0.7c0.7-0.5,1.1-1.2,1.1-2.1c0-0.4-0.1-0.8-0.3-1.1c-0.2-0.3-0.5-0.6-0.9-0.8
			c-0.4-0.2-0.9-0.4-1.5-0.6c-0.6-0.2-1.3-0.4-2.1-0.6c-1-0.3-1.9-0.5-2.7-0.8c-0.7-0.2-1.4-0.5-1.8-0.9c-0.5-0.3-0.8-0.7-1-1.2
			c-0.2-0.5-0.3-1-0.3-1.7c0-0.9,0.2-1.6,0.5-2.3c0.3-0.7,0.8-1.2,1.4-1.7c0.6-0.4,1.3-0.8,2.1-1c0.8-0.2,1.7-0.3,2.6-0.3
			c1.3,0,2.5,0.2,3.6,0.6c1.1,0.4,2.1,1,2.8,1.6l-1.3,1.7c-0.7-0.6-1.5-1.1-2.4-1.4c-0.9-0.3-1.8-0.5-2.8-0.5c-1,0-1.9,0.2-2.7,0.7
			c-0.7,0.4-1.1,1.2-1.1,2.1c0,0.4,0.1,0.7,0.2,1c0.1,0.3,0.4,0.5,0.7,0.7c0.3,0.2,0.7,0.4,1.3,0.5c0.5,0.2,1.1,0.3,1.9,0.5
			c1.1,0.3,2.1,0.5,3,0.8c0.8,0.3,1.5,0.6,2.1,1s1,0.8,1.2,1.3c0.3,0.5,0.4,1.1,0.4,1.8c0,1.6-0.6,2.9-1.8,3.8
			C568.5,62.6,566.8,63,564.7,63z"/>
	</g>
	<g>
		<path fill="#010101" d="M648.8,245.4v-23.3h15.4v2.6h-12.4v7.8h10.5v2.5h-10.5v10.4H648.8z"/>
		<path fill="#010101" d="M671.7,245.7c-1.8,0-3.1-0.6-4.1-1.8c-0.9-1.2-1.4-3-1.4-5.4v-10.3h2.9v9.7c0,3.5,1.2,5.3,3.6,5.3
			c1.2,0,2.3-0.4,3.3-1.1c1-0.8,1.8-1.8,2.3-3.1v-10.7h2.9v13.6c0,0.7,0.3,1,0.9,1v2.5c-0.3,0-0.6,0.1-0.8,0.1c-0.2,0-0.4,0-0.5,0
			c-0.6,0-1-0.2-1.4-0.5c-0.4-0.3-0.6-0.8-0.6-1.3l-0.1-2c-0.8,1.3-1.8,2.3-3,3C674.6,245.4,673.2,245.7,671.7,245.7z"/>
		<path fill="#010101" d="M701,245.4h-2.9v-9.6c0-1.8-0.3-3.2-0.8-4c-0.6-0.8-1.4-1.3-2.5-1.3c-0.6,0-1.2,0.1-1.8,0.3
			c-0.6,0.2-1.1,0.5-1.7,0.9c-0.5,0.4-1,0.9-1.4,1.4c-0.4,0.5-0.7,1.1-0.9,1.8v10.3h-2.9v-17.1h2.6v3.7c0.7-1.2,1.7-2.2,2.9-2.9
			c1.3-0.7,2.7-1.1,4.2-1.1c1,0,1.8,0.2,2.5,0.5c0.7,0.4,1.2,0.9,1.6,1.5s0.7,1.4,0.8,2.3c0.2,0.9,0.2,1.8,0.2,2.9V245.4z"/>
	</g>
	<g>
		<path fill="#010101" d="M620.9,365.7v-23.3h15.4v2.6h-12.4v7.8h10.5v2.5h-10.5v10.4H620.9z"/>
		<path fill="#010101" d="M647.4,351.1c-1.4,0-2.7,0.4-3.8,1.1c-1.1,0.7-1.9,1.7-2.3,2.9v10.6h-2.9v-17.1h2.7v4
			c0.6-1.2,1.4-2.1,2.3-2.9c1-0.7,2-1.1,3.1-1.2c0.2,0,0.4,0,0.6,0c0.2,0,0.3,0,0.4,0V351.1z"/>
		<path fill="#010101" d="M650.3,345.3v-3.6h2.9v3.6H650.3z M650.3,365.7v-17.1h2.9v17.1H650.3z"/>
		<path fill="#010101" d="M665.4,366c-1.3,0-2.5-0.2-3.5-0.7c-1.1-0.5-2-1.1-2.8-1.9c-0.8-0.8-1.4-1.8-1.8-2.8
			c-0.4-1.1-0.6-2.2-0.6-3.4c0-1.2,0.2-2.3,0.6-3.4c0.4-1.1,1-2,1.8-2.8c0.8-0.8,1.7-1.5,2.8-1.9c1.1-0.5,2.3-0.7,3.5-0.7
			c1.3,0,2.5,0.2,3.5,0.7c1.1,0.5,2,1.1,2.7,1.9c0.7,0.8,1.3,1.7,1.7,2.8c0.4,1.1,0.6,2.2,0.6,3.3c0,0.2,0,0.5,0,0.7
			c0,0.2,0,0.4,0,0.5h-14.2c0.1,0.9,0.3,1.6,0.6,2.3c0.3,0.7,0.8,1.3,1.3,1.8c0.5,0.5,1.1,0.9,1.8,1.2c0.7,0.3,1.4,0.4,2.1,0.4
			c0.5,0,1-0.1,1.5-0.2c0.5-0.1,1-0.3,1.4-0.6c0.4-0.2,0.8-0.5,1.2-0.9c0.3-0.4,0.6-0.7,0.8-1.2l2.5,0.7c-0.3,0.6-0.7,1.2-1.2,1.7
			s-1.1,1-1.7,1.4s-1.4,0.7-2.1,0.9C667.1,365.9,666.2,366,665.4,366z M671.3,356c-0.1-0.8-0.3-1.6-0.6-2.2s-0.8-1.3-1.3-1.8
			c-0.5-0.5-1.1-0.9-1.8-1.1c-0.7-0.3-1.4-0.4-2.2-0.4c-0.8,0-1.5,0.1-2.2,0.4c-0.7,0.3-1.3,0.7-1.8,1.1c-0.5,0.5-0.9,1.1-1.2,1.8
			c-0.3,0.7-0.5,1.4-0.6,2.2H671.3z"/>
		<path fill="#010101" d="M692.1,365.7h-2.9v-9.6c0-1.8-0.3-3.2-0.8-4c-0.6-0.8-1.4-1.3-2.5-1.3c-0.6,0-1.2,0.1-1.8,0.3
			c-0.6,0.2-1.1,0.5-1.7,0.9c-0.5,0.4-1,0.9-1.4,1.4c-0.4,0.5-0.7,1.1-0.9,1.8v10.3h-2.9v-17.1h2.6v3.7c0.7-1.2,1.7-2.2,2.9-2.9
			c1.3-0.7,2.7-1.1,4.2-1.1c1,0,1.8,0.2,2.5,0.5c0.7,0.4,1.2,0.9,1.6,1.5c0.4,0.6,0.7,1.4,0.8,2.3c0.2,0.9,0.2,1.8,0.2,2.9V365.7z"
			/>
		<path fill="#010101" d="M703.6,366c-1.2,0-2.3-0.2-3.3-0.7c-1-0.5-1.9-1.1-2.6-1.9c-0.7-0.8-1.3-1.8-1.7-2.8
			c-0.4-1.1-0.6-2.2-0.6-3.4c0-1.2,0.2-2.3,0.6-3.4c0.4-1.1,0.9-2,1.6-2.8c0.7-0.8,1.5-1.5,2.5-1.9c1-0.5,2-0.7,3.1-0.7
			c1.4,0,2.6,0.4,3.7,1.1c1.1,0.7,1.9,1.6,2.6,2.6v-10.2h2.9v20.4c0,0.7,0.3,1,0.9,1v2.5c-0.3,0-0.6,0.1-0.7,0.1c-0.2,0-0.4,0-0.5,0
			c-0.6,0-1.1-0.2-1.5-0.6c-0.4-0.4-0.6-0.8-0.6-1.3v-1.4c-0.7,1.1-1.6,2-2.7,2.6C706.1,365.7,704.9,366,703.6,366z M704.3,363.5
			c0.5,0,1.1-0.1,1.6-0.3c0.6-0.2,1.1-0.5,1.6-0.8c0.5-0.3,0.9-0.8,1.3-1.2c0.4-0.5,0.6-1,0.7-1.5v-4.9c-0.2-0.5-0.5-1.1-0.9-1.6
			c-0.4-0.5-0.8-0.9-1.3-1.3c-0.5-0.4-1-0.6-1.6-0.9c-0.6-0.2-1.1-0.3-1.7-0.3c-0.9,0-1.6,0.2-2.3,0.5c-0.7,0.4-1.3,0.8-1.8,1.4
			c-0.5,0.6-0.9,1.3-1.1,2.1c-0.3,0.8-0.4,1.6-0.4,2.4c0,0.9,0.2,1.7,0.5,2.4c0.3,0.8,0.7,1.5,1.2,2c0.5,0.6,1.1,1,1.9,1.4
			C702.7,363.3,703.5,363.5,704.3,363.5z"/>
		<path fill="#010101" d="M723.2,366c-1.4,0-2.7-0.2-4.1-0.6c-1.3-0.4-2.5-1-3.4-1.9l1.2-1.9c1,0.8,2,1.3,3,1.7
			c1,0.4,2.1,0.6,3.2,0.6c1.2,0,2.2-0.2,3-0.7c0.7-0.5,1.1-1.2,1.1-2.1c0-0.4-0.1-0.8-0.3-1.1c-0.2-0.3-0.5-0.6-0.9-0.8
			c-0.4-0.2-0.9-0.4-1.5-0.6s-1.3-0.4-2.1-0.6c-1-0.3-1.9-0.5-2.7-0.8c-0.7-0.2-1.4-0.5-1.8-0.9c-0.5-0.3-0.8-0.7-1-1.2
			c-0.2-0.5-0.3-1-0.3-1.7c0-0.9,0.2-1.6,0.5-2.3c0.3-0.7,0.8-1.2,1.4-1.7c0.6-0.4,1.3-0.8,2.1-1c0.8-0.2,1.7-0.3,2.6-0.3
			c1.3,0,2.5,0.2,3.6,0.6c1.1,0.4,2.1,1,2.8,1.6l-1.3,1.7c-0.7-0.6-1.5-1.1-2.4-1.4c-0.9-0.3-1.8-0.5-2.8-0.5c-1,0-1.9,0.2-2.7,0.7
			c-0.7,0.4-1.1,1.2-1.1,2.1c0,0.4,0.1,0.7,0.2,1c0.1,0.3,0.4,0.5,0.7,0.7c0.3,0.2,0.7,0.4,1.3,0.5c0.5,0.2,1.1,0.3,1.9,0.5
			c1.1,0.3,2.1,0.5,3,0.8c0.8,0.3,1.5,0.6,2.1,1c0.6,0.4,1,0.8,1.2,1.3s0.4,1.1,0.4,1.8c0,1.6-0.6,2.9-1.8,3.8
			C727,365.5,725.3,366,723.2,366z"/>
	</g>
</g>
</svg>
