<?xml version="1.0" encoding="utf-8"?>
<!-- Generator: Adobe Illustrator 17.1.0, SVG Export Plug-In . SVG Version: 6.00 Build 0)  -->
<!DOCTYPE svg PUBLIC "-//W3C//DTD SVG 1.1//EN" "http://www.w3.org/Graphics/SVG/1.1/DTD/svg11.dtd">
<svg version="1.1" id="Layer_1" xmlns="http://www.w3.org/2000/svg" xmlns:xlink="http://www.w3.org/1999/xlink" x="0px" y="0px"
	 viewBox="0 0 70 22.6" enable-background="new 0 0 70 22.6" xml:space="preserve">
<line fill="none" stroke="#010101" stroke-width="0.75" stroke-linecap="round" stroke-miterlimit="10" x1="45.5" y1="11.3" x2="69.2" y2="11.3"/>
<circle fill="none" stroke="#010101" stroke-width="0.75" stroke-miterlimit="10" cx="34.9" cy="11.3" r="10.5"/>
<line fill="none" stroke="#010101" stroke-width="0.75" stroke-linecap="round" stroke-miterlimit="10" x1="15.4" y1="14.4" x2="23.9" y2="11.3"/>
<line fill="none" stroke="#010101" stroke-width="0.75" stroke-linecap="round" stroke-miterlimit="10" x1="23.9" y1="11.3" x2="15.4" y2="8.1"/>
<g>
	<g>
		<g>
			<g>
				<g>
					<g>
						<rect x="0" y="7.5" fill="none" width="6.2" height="7.5"/>
					</g>
					<rect x="4.6" y="11" fill-rule="evenodd" clip-rule="evenodd" width="1.2" height="0.8"/>
					<rect x="2.5" y="11" fill-rule="evenodd" clip-rule="evenodd" width="1.2" height="0.8"/>
					<rect x="0.5" y="11" fill-rule="evenodd" clip-rule="evenodd" width="1.2" height="0.8"/>
				</g>
			</g>
			<g>
				<g>
					<g>
						<rect x="6.2" y="7.5" fill="none" width="6.2" height="7.5"/>
					</g>
					<rect x="10.9" y="11" fill-rule="evenodd" clip-rule="evenodd" width="1.2" height="0.8"/>
					<rect x="8.8" y="11" fill-rule="evenodd" clip-rule="evenodd" width="1.2" height="0.8"/>
					<rect x="6.7" y="11" fill-rule="evenodd" clip-rule="evenodd" width="1.2" height="0.8"/>
				</g>
			</g>
			<g>
				<g>
					<g>
						<rect x="12.5" y="7.5" fill="none" width="6.2" height="7.5"/>
					</g>
					<rect x="17.1" y="11" fill-rule="evenodd" clip-rule="evenodd" width="1.2" height="0.8"/>
					<rect x="15" y="11" fill-rule="evenodd" clip-rule="evenodd" width="1.2" height="0.8"/>
					<rect x="12.9" y="11" fill-rule="evenodd" clip-rule="evenodd" width="1.2" height="0.8"/>
				</g>
			</g>
		</g>
	</g>
</g>
</svg>
